<?xml version="1.0" encoding="UTF-8" standalone="no"?>
<!-- Created with Inkscape (http://www.inkscape.org/) -->

<svg
   xmlns:dc="http://purl.org/dc/elements/1.1/"
   xmlns:cc="http://creativecommons.org/ns#"
   xmlns:rdf="http://www.w3.org/1999/02/22-rdf-syntax-ns#"
   xmlns:svg="http://www.w3.org/2000/svg"
   xmlns="http://www.w3.org/2000/svg"
   version="1.2"
   width="562.06689"
   height="103.68"
   id="svg2">
  <defs
     id="defs4" />
  <metadata
     id="metadata7">
    <rdf:RDF>
      <cc:Work
         rdf:about="">
        <dc:format>image/svg+xml</dc:format>
        <dc:type
           rdf:resource="http://purl.org/dc/dcmitype/StillImage" />
        <dc:title></dc:title>
      </cc:Work>
    </rdf:RDF>
  </metadata>
  <g
     transform="translate(-90.657143,-433.12982)"
     id="layer1">
    <g
       transform="translate(-17.142857,151.42857)"
       id="flowRoot3036"
       style="font-size:120px;font-style:normal;font-weight:normal;line-height:125%;letter-spacing:0px;word-spacing:0px;fill:#000000;fill-opacity:1;stroke:none;font-family:Sans">
      <path
         d="m 107.8,364.98125 20.04,-2.4 0,-26.64 20.04,0 0,-16.8 -20.04,0 0,-18.6 27.84,0 -5.16,-16.8 -42.72,0 0,81.24"
         id="path3045"
         style="font-variant:normal;font-weight:bold;font-stretch:normal;fill:#0084c8;font-family:Koch Geometric;-inkscape-font-specification:Koch Geometric Bold" />
      <path
         d="m 192.1975,364.98125 16.68,-2.4 0,-37.2 c 0,-9.59999 -1.56,-14.28 -6.12,-18.12 -4.08,-3.6 -9.84001,-5.4 -17.04,-5.4 -6.23999,0 -12.60001,0.96 -18.84,2.76 l -3,15.96 c 10.55999,-2.64 12.96,-3 17.04,-3 8.51999,0 11.28,2.28001 11.28,9.12 l 0,2.28 c -3.96,-3.36 -7.92001,-4.68 -13.92,-4.68 -12.59999,0 -21.6,8.76001 -21.6,21.12 0,11.75999 8.88001,20.4 20.88,20.4 6.83999,0 11.04,-2.04001 14.64,-7.08 l 0,6.24 m -18.36,-20.88 c 0,-4.44 3.48001,-7.44 8.76,-7.44 5.27999,0 9,3.24 9,7.92 0,4.44 -3.48001,7.32 -8.88,7.32 -5.39999,0 -8.88,-3.12 -8.88,-7.8"
         id="path3047"
         style="font-variant:normal;font-weight:bold;font-stretch:normal;fill:#0084c8;font-family:Koch Geometric;-inkscape-font-specification:Koch Geometric Bold" />
      <path
         d="m 264.50687,344.82125 c -4.07999,3.24 -6.6,4.2 -10.8,4.2 -9.23999,0 -16.44,-6.60001 -16.44,-15.24 0,-8.39999 7.20001,-15.12 16.20001,-15.12 3.59999,0 6.24,0.84 11.03999,3.24 l 9.84,-12.84 c -7.19999,-5.03999 -13.92,-7.2 -22.08,-7.2 -18.71998,0 -33.24,14.04002 -33.24,32.04 0,8.75999 3.48001,16.92001 10.08,23.16 6.12,5.87999 13.44001,8.76 22.44,8.76 8.88,0 15.48001,-2.28001 22.8,-7.92 l -9.84,-13.08"
         id="path3049"
         style="font-variant:normal;font-weight:bold;font-stretch:normal;fill:#0084c8;font-family:Koch Geometric;-inkscape-font-specification:Koch Geometric Bold" />
      <path
         d="m 329.17,342.06125 c -7.67999,5.27999 -11.76001,6.96 -17.04,6.96 -3.96,0 -6.36,-0.96 -9.96,-3.96 l 38.4,-24.48 c -2.76,-5.03999 -4.32,-7.44 -7.2,-10.2 -5.63999,-5.39999 -13.68001,-8.52 -21.96,-8.52 -17.63998,0 -31.68,14.04002 -31.68,31.68 0,17.99998 14.28002,32.28 32.4,32.28 9.35999,0 17.04001,-2.88001 26.4,-9.72 l -9.36,-14.04 m -32.16,-8.4 c 0,-8.75999 6.60001,-15.84 14.88,-15.84 2.64,0 4.32,0.6 7.08,2.76 l -21.96,13.08"
         id="path3051"
         style="font-variant:normal;font-weight:bold;font-stretch:normal;fill:#0084c8;font-family:Koch Geometric;-inkscape-font-specification:Koch Geometric Bold" />
      <path
         d="m 344.38375,355.26125 c 10.07999,8.03999 16.92001,10.56 28.68,10.56 8.63999,0 15.72001,-2.04 21,-5.88 6.47999,-4.8 10.44,-12.48001 10.44,-20.4 0,-6.95999 -3,-13.68 -7.92,-17.76 -4.68,-3.96 -9.24001,-5.88 -19.2,-8.28 -8.03999,-1.92 -10.8,-3.84 -10.8,-7.32 0,-4.2 3.84001,-6.84 9.84,-6.84 5.87999,0 9.72,1.44 14.4,5.64 l 11.76,-14.28 c -8.39999,-6.23999 -16.56001,-9 -26.4,-9 -8.99999,0 -16.20001,2.28 -21.48,6.84 -5.39999,4.56 -8.64,11.52001 -8.64,18.36 0,5.39999 2.04,10.8 5.76,15.24 3.48,4.08 8.64001,6.96 15.96,8.76 10.67999,2.76 10.68,2.64 13.08,3.96 2.04,1.08 3.12,2.88 3.12,5.28 0,5.03999 -4.20001,8.04 -11.16,8.04 -6.59999,0 -10.80001,-1.92001 -16.68,-7.44 l -11.76,14.52"
         id="path3053"
         style="font-variant:normal;font-weight:bold;font-stretch:normal;fill:#0084c8;font-family:Koch Geometric;-inkscape-font-specification:Koch Geometric Bold" />
      <path
         d="m 415.50625,385.38125 18,-2.4 0,-23.76 c 4.2,4.56 9.00001,6.6 15.6,6.6 16.19998,0 30.12,-14.88002 30.12,-32.4 0,-17.27998 -13.08002,-31.56 -28.92,-31.56 -8.15999,0 -14.4,3.48001 -19.08,10.56 l 0,-10.2 -15.72,2.4 0,80.76 m 16.44,-52.2 c 0,-8.27999 6.24001,-14.52 14.4,-14.52 8.27999,0 14.64,6.48001 14.64,15 0,8.51999 -6.48001,15.36 -14.52,15.36 -8.15999,0 -14.52,-6.96001 -14.52,-15.84"
         id="path3055"
         style="font-variant:normal;font-weight:bold;font-stretch:normal;fill:#0084c8;font-family:Koch Geometric;-inkscape-font-specification:Koch Geometric Bold" />
      <path
         d="m 521.49437,364.98125 16.68001,-2.4 0,-37.2 c 0,-9.59999 -1.56001,-14.28 -6.12,-18.12 -4.08,-3.6 -9.84001,-5.4 -17.04001,-5.4 -6.23999,0 -12.6,0.96 -18.84,2.76 l -3,15.96 c 10.55999,-2.64 12.96001,-3 17.04001,-3 8.51999,0 11.27999,2.28001 11.27999,9.12 l 0,2.28 c -3.95999,-3.36 -7.92,-4.68 -13.91999,-4.68 -12.59999,0 -21.60001,8.76001 -21.60001,21.12 0,11.75999 8.88002,20.4 20.88,20.4 6.84,0 11.04001,-2.04001 14.64,-7.08 l 0,6.24 m -18.36,-20.88 c 0,-4.44 3.48001,-7.44 8.76001,-7.44 5.27999,0 8.99999,3.24 8.99999,7.92 0,4.44 -3.48,7.32 -8.88,7.32 -5.39999,0 -8.88,-3.12 -8.88,-7.8"
         id="path3057"
         style="font-variant:normal;font-weight:bold;font-stretch:normal;fill:#0084c8;font-family:Koch Geometric;-inkscape-font-specification:Koch Geometric Bold" />
      <path
         d="m 593.80375,344.82125 c -4.08,3.24 -6.6,4.2 -10.8,4.2 -9.23999,0 -16.44,-6.60001 -16.44,-15.24 0,-8.39999 7.20001,-15.12 16.2,-15.12 3.6,0 6.24,0.84 11.04,3.24 l 9.84,-12.84 c -7.19999,-5.03999 -13.92001,-7.2 -22.08,-7.2 -18.71998,0 -33.24,14.04002 -33.24,32.04 0,8.75999 3.48001,16.92001 10.08,23.16 6.11999,5.87999 13.44001,8.76 22.44,8.76 8.87999,0 15.48001,-2.28001 22.8,-7.92 l -9.84,-13.08"
         id="path3059"
         style="font-variant:normal;font-weight:bold;font-stretch:normal;fill:#0084c8;font-family:Koch Geometric;-inkscape-font-specification:Koch Geometric Bold" />
      <path
         d="m 658.46687,342.06125 c -7.67999,5.27999 -11.76,6.96 -17.04,6.96 -3.95999,0 -6.36,-0.96 -9.96,-3.96 l 38.40001,-24.48 c -2.76,-5.03999 -4.32001,-7.44 -7.20001,-10.2 -5.63999,-5.39999 -13.68,-8.52 -21.96,-8.52 -17.63998,0 -31.67999,14.04002 -31.67999,31.68 0,17.99998 14.28001,32.28 32.39999,32.28 9.36,0 17.04001,-2.88001 26.4,-9.72 l -9.36,-14.04 m -32.16,-8.4 c 0,-8.75999 6.60001,-15.84 14.88,-15.84 2.64,0 4.32001,0.6 7.08001,2.76 l -21.96001,13.08"
         id="path3061"
         style="font-variant:normal;font-weight:bold;font-stretch:normal;fill:#0084c8;font-family:Koch Geometric;-inkscape-font-specification:Koch Geometric Bold" />
    </g>
  </g>
</svg>
