<?xml version="1.0" encoding="UTF-8" standalone="no"?>
<svg
   xmlns:dc="http://purl.org/dc/elements/1.1/"
   xmlns:cc="http://creativecommons.org/ns#"
   xmlns:rdf="http://www.w3.org/1999/02/22-rdf-syntax-ns#"
   xmlns:svg="http://www.w3.org/2000/svg"
   xmlns="http://www.w3.org/2000/svg"
   xmlns:sodipodi="http://sodipodi.sourceforge.net/DTD/sodipodi-0.dtd"
   xmlns:inkscape="http://www.inkscape.org/namespaces/inkscape"
   version="1.1"
   x="0px"
   y="0px"
   viewBox="0 0 79.542975 55.8135"
   xml:space="preserve"
   id="svg2"
   inkscape:version="0.48.4 r9939"
   width="100%"
   height="100%"
   sodipodi:docname="volume.svg"><metadata
     id="metadata14"><rdf:RDF><cc:Work
         rdf:about=""><dc:format>image/svg+xml</dc:format><dc:type
           rdf:resource="http://purl.org/dc/dcmitype/StillImage" /></cc:Work></rdf:RDF></metadata><defs
     id="defs12" /><sodipodi:namedview
     pagecolor="#ffffff"
     bordercolor="#666666"
     borderopacity="1"
     objecttolerance="10"
     gridtolerance="10"
     guidetolerance="10"
     inkscape:pageopacity="0"
     inkscape:pageshadow="2"
     inkscape:window-width="663"
     inkscape:window-height="708"
     id="namedview10"
     showgrid="false"
     fit-margin-top="0"
     fit-margin-left="0"
     fit-margin-right="0"
     fit-margin-bottom="0"
     inkscape:zoom="2.6222222"
     inkscape:cx="40.331312"
     inkscape:cy="27.6568"
     inkscape:window-x="12"
     inkscape:window-y="12"
     inkscape:window-maximized="0"
     inkscape:current-layer="svg2" /><polyline
     points="47.4314,72.4634 47.4314,16.8433 22.4314,33.4634 22.4314,33.4634 5.4314,33.4634 5.4314,56.4634 22.4314,56.4634   "
     id="polyline4"
     transform="translate(-5.4314,-16.8433)" /><path
     d="m 67.8261,1.603 -0.8375,-0.7896 -4.4456,4.19 0.8375,0.7896 c 13.1713,12.4173 13.1713,32.6235 0,45.0409 l -0.8375,0.7896 4.4456,4.19 0.8375,-0.7896 c 15.6225,-14.7283 15.6225,-38.6927 0,-53.4209 z"
     id="path6"
     inkscape:connector-curvature="0" /><path
     d="m 54.7266,11.6495 -0.9241,-0.8361 -4.4418,4.0187 0.9241,0.8361 c 3.7271,3.3721 5.7795,7.8631 5.7795,12.6452 0,4.7832 -2.0524,9.2743 -5.7795,12.6463 l -0.9241,0.8361 4.4418,4.0176 0.9241,-0.8361 c 4.923,-4.4529 7.6341,-10.3702 7.6341,-16.6639 0,-6.2937 -2.711,-12.211 -7.6341,-16.6639 z"
     id="path8"
     inkscape:connector-curvature="0" /></svg>