<svg xmlns="http://www.w3.org/2000/svg" xmlns:xlink="http://www.w3.org/1999/xlink" version="1.1" x="0px" y="0px" viewBox="0 0 100 70" enable-background="new 0 0 100 70" xml:space="preserve"><g><path d="M42.997,62.661L50,69.665l7.003-7.004C55.212,60.867,52.735,59.76,50,59.76C47.264,59.76,44.789,60.867,42.997,62.661z"></path><path d="M29,48.665l6.995,6.991c3.584-3.582,8.536-5.8,14.004-5.8c5.467,0,10.421,2.218,14.006,5.8L71,48.665   c-5.379-5.383-12.809-8.714-21-8.714C41.808,39.951,34.379,43.282,29,48.665z"></path><path d="M14.999,34.664l6.989,6.985C29.157,34.481,39.061,30.048,50,30.048c10.941,0,20.843,4.433,28.012,11.601l6.989-6.985   C76.034,25.695,63.652,20.143,50,20.143C36.347,20.143,23.967,25.695,14.999,34.664z"></path><path d="M50,0.335c-19.113,0-36.446,7.774-49,20.328l6.98,6.983C18.736,16.89,33.592,10.24,50,10.24   c16.409,0,31.265,6.65,42.017,17.406L99,20.663C86.444,8.109,69.113,0.335,50,0.335z"></path></g></svg>