<?xml version="1.0" encoding="UTF-8" standalone="no"?>
<!-- Created with Inkscape (http://www.inkscape.org/) -->

<svg
   xmlns:dc="http://purl.org/dc/elements/1.1/"
   xmlns:cc="http://creativecommons.org/ns#"
   xmlns:rdf="http://www.w3.org/1999/02/22-rdf-syntax-ns#"
   xmlns:svg="http://www.w3.org/2000/svg"
   xmlns="http://www.w3.org/2000/svg"
   version="1.2"
   width="1139.0265"
   height="147.888"
   id="svg2">
  <defs
     id="defs4" />
  <metadata
     id="metadata7">
    <rdf:RDF>
      <cc:Work
         rdf:about="">
        <dc:format>image/svg+xml</dc:format>
        <dc:type
           rdf:resource="http://purl.org/dc/dcmitype/StillImage" />
        <dc:title></dc:title>
      </cc:Work>
    </rdf:RDF>
  </metadata>
  <g
     transform="translate(95.70732,-315.64738)"
     id="layer1">
    <g
       transform="translate(-151.42857,40)"
       id="flowRoot2837"
       style="font-size:40px;font-style:normal;font-weight:normal;line-height:125%;letter-spacing:0px;word-spacing:0px;fill:#000000;fill-opacity:1;stroke:none;font-family:Sans">
      <path
         d="m 64.50525,367.23138 c 0.959989,3e-5 2.111988,0.28803 3.456,0.864 1.439985,0.57603 2.447984,1.10403 3.024,1.584 l 23.76,20.736 c 2.399957,2.112 5.27995,3.696 8.64,4.752 3.45595,1.056 6.67194,1.92 9.648,2.592 l 7.344,0 c 6.71993,0 12.67192,-1.2 17.856,-3.6 5.27991,-2.4 10.51191,-5.85599 15.696,-10.368 0.7679,-0.67199 1.3439,-1.15199 1.728,-1.44 0.4799,-0.28799 0.7199,-0.81599 0.72,-1.584 -1e-4,-0.95998 -0.5281,-1.43998 -1.584,-1.44 -0.5761,2e-5 -1.2481,0.24002 -2.016,0.72 -0.7681,0.38402 -1.5841,0.86402 -2.448,1.44 -0.8641,0.57601 -1.68009,1.15201 -2.448,1.728 -0.76809,0.48001 -1.39209,0.86401 -1.872,1.152 -1.92009,0.96001 -3.88809,1.63201 -5.904,2.016 -2.01608,0.28801 -4.08008,0.43201 -6.192,0.432 -3.36008,10e-6 -6.72007,-0.76799 -10.08,-2.304 -3.36007,-1.63199 -6.62406,-3.59998 -9.792,-5.904 -3.16806,-2.30398 -6.19205,-4.75198 -9.072,-7.344 -2.88005,-2.68797 -5.472045,-5.03997 -7.776,-7.056 -1.248042,-1.15197 -2.44804,-2.39997 -3.6,-3.744 -1.152038,-1.43996 -2.400037,-2.78396 -3.744,-4.032 -1.248034,-1.24796 -2.640033,-2.30396 -4.176,-3.168 -1.44003,-0.86396 -3.120028,-1.29596 -5.04,-1.296 -1.728025,4e-5 -3.696023,0.57604 -5.904,1.728 -2.208018,1.05604 -4.416016,2.35204 -6.624,3.888 -2.208012,1.53604 -4.32001,3.16804 -6.336,4.896 -2.016005,1.63203 -3.648004,3.02403 -4.896,4.176 l 0,0.864 c -3e-6,1.05603 0.527997,1.58403 1.584,1.584 1.055995,3e-5 2.015994,-0.28797 2.88,-0.864 0.959992,-0.67197 2.015991,-1.00797 3.168,-1.008 m 44.208,1.872 c -5e-5,1.24803 0.47995,1.87203 1.44,1.872 2.01594,3e-5 4.41594,-0.62397 7.2,-1.872 2.78393,-1.24797 5.42393,-2.83197 7.92,-4.752 2.59193,-2.01597 4.75192,-4.22396 6.48,-6.624 1.72792,-2.49596 2.59192,-4.99196 2.592,-7.488 -8e-5,-2.49595 -0.72008,-5.03995 -2.16,-7.632 -1.44008,-2.68794 -3.31207,-5.32794 -5.616,-7.92 -2.20807,-2.68794 -4.75207,-5.32793 -7.632,-7.92 -2.78406,-2.59193 -5.56806,-5.13593 -8.352,-7.632 -0.57606,-0.76792 -1.05606,-1.43992 -1.44,-2.016 -0.28805,-0.67192 -0.43205,-1.53592 -0.432,-2.592 -5e-5,-1.15192 0.23995,-2.11192 0.72,-2.88 0.47994,-0.76791 1.00794,-1.48791 1.584,-2.16 0.67194,-0.67191 1.24794,-1.29591 1.728,-1.872 0.47994,-0.67191 0.71994,-1.39191 0.72,-2.16 -2.49606,9e-5 -4.99205,0.57609 -7.488,1.728 -2.40005,1.15209 -4.56005,2.68809 -6.48,4.608 -1.920043,1.82408 -3.504042,3.93608 -4.752,6.336 -1.248039,2.30408 -1.872039,4.65607 -1.872,7.056 -3.9e-5,1.63207 0.287961,3.45607 0.864,5.472 0.67196,2.01606 1.631959,3.64806 2.88,4.896 l 17.712,17.712 c 0.86394,0.86404 1.39194,1.82404 1.584,2.88 0.19194,0.96004 0.28794,2.01604 0.288,3.168 -6e-5,1.15204 -0.38406,2.20803 -1.152,3.168 -0.76806,0.96003 -1.63206,1.87203 -2.592,2.736 -0.96006,0.76803 -1.82406,1.48803 -2.592,2.16 -0.76805,0.67203 -1.15205,1.24803 -1.152,1.728 m -52.992,-53.424 c -10e-7,3.64808 0.623998,7.10407 1.872,10.368 1.247995,3.26407 2.975994,6.09606 5.184,8.496 2.207989,2.40006 4.847987,4.32006 7.92,5.76 3.16798,1.34405 6.623977,2.01605 10.368,2.016 2.399971,5e-5 4.511969,-0.14395 6.336,-0.432 1.919965,-0.38395 3.983963,-1.29594 6.192,-2.736 l 0,-0.576 c -3.9e-5,-0.38394 -0.144039,-0.86394 -0.432,-1.44 -0.288039,-0.67194 -0.672038,-1.00794 -1.152,-1.008 -1.728036,6e-5 -3.456034,0.43206 -5.184,1.296 -1.728031,0.76806 -3.552029,1.15206 -5.472,1.152 -2.880024,6e-5 -5.568022,-0.52794 -8.064,-1.584 -2.400017,-1.15194 -4.512014,-2.68794 -6.336,-4.608 -1.824011,-1.91993 -3.264009,-4.12793 -4.32,-6.624 -0.960007,-2.59193 -1.440007,-5.32792 -1.44,-8.208 -7e-6,-3.55192 0.671992,-6.76791 2.016,-9.648 1.43999,-2.87991 3.311988,-5.32791 5.616,-7.344 2.399983,-2.1119 5.13598,-3.6959 8.208,-4.752 3.167974,-1.1519 6.431971,-1.7279 9.792,-1.728 3.263964,10e-5 6.479961,0.4801 9.648,1.44 3.167955,0.9601 6.23995,2.1601 9.216,3.6 3.07195,1.4401 5.99994,3.07209 8.784,4.896 2.87994,1.82409 5.66393,3.60009 8.352,5.328 1.63193,1.05609 3.26393,2.20808 4.896,3.456 1.63192,1.24808 3.26392,2.40008 4.896,3.456 1.72792,0.96008 3.50392,1.77608 5.328,2.448 1.91991,0.67208 3.88791,1.00808 5.904,1.008 2.30391,8e-5 4.51191,-0.52792 6.624,-1.584 2.1119,-1.05592 4.1279,-2.35192 6.048,-3.888 1.9199,-1.53592 3.69589,-3.16791 5.328,-4.896 1.72789,-1.82391 3.35989,-3.45591 4.896,-4.896 l 0,-0.576 c -1.1e-4,-0.76791 -0.28811,-1.24791 -0.864,-1.44 -0.48011,-0.28791 -1.00811,-0.43191 -1.584,-0.432 -1.24811,9e-5 -2.40011,0.33609 -3.456,1.008 -0.96011,0.57609 -2.1601,0.86409 -3.6,0.864 -2.1121,9e-5 -4.3681,-0.57591 -6.768,-1.728 -2.40009,-1.2479 -4.84809,-2.6879 -7.344,-4.32 -2.40009,-1.6319 -4.80008,-3.3119 -7.2,-5.04 -2.30408,-1.72789 -4.46408,-3.11989 -6.48,-4.176 -3.07207,-1.63189 -6.04807,-2.97589 -8.928,-4.032 -2.88006,-1.15189 -5.80806,-2.06389 -8.784,-2.736 -2.88005,-0.67188 -5.90405,-1.15188 -9.072,-1.44 -3.072045,-0.28788 -6.336042,-0.43188 -9.792,-0.432 -4.608034,1.2e-4 -9.120029,1.00812 -13.536,3.024 -4.416021,1.92011 -8.400017,4.56011 -11.952,7.92 -3.45601,3.2641 -6.288007,7.0561 -8.496,11.376 -2.112002,4.22409 -3.168001,8.68809 -3.168,13.392"
         id="path2846"
         style="font-size:144px;font-family:Proclamate Light;-inkscape-font-specification:Proclamate Light" />
      <path
         d="m 180.5715,421.08738 c -10e-6,0.57597 0.14399,1.10397 0.432,1.584 0.38399,0.57597 0.86399,0.86397 1.44,0.864 l 28.656,-24.48 c 2.59195,-3.264 5.03995,-6.336 7.344,-9.216 2.30395,-2.87999 4.31995,-5.85599 6.048,-8.928 1.72794,-3.07198 3.07194,-6.33598 4.032,-9.792 1.05594,-3.45597 1.58394,-7.43997 1.584,-11.952 -6e-5,-5.47196 -0.76806,-10.46395 -2.304,-14.976 -1.53606,-4.51194 -3.40806,-9.21594 -5.616,-14.112 -0.28805,-0.57593 -0.86405,-1.67993 -1.728,-3.312 -0.86405,-1.72793 -1.77605,-3.50393 -2.736,-5.328 -0.96005,-1.91992 -1.82405,-3.59992 -2.592,-5.04 -0.76805,-1.43992 -1.20005,-2.15992 -1.296,-2.16 l -1.44,0.576 c -3.36004,1.92008 -6.52804,3.84008 -9.504,5.76 -2.88003,1.82407 -6.04803,3.98407 -9.504,6.48 l -1.008,0 c -2e-5,-2.68793 -0.048,-5.27993 -0.144,-7.776 -0.096,-2.49592 -0.14402,-4.94392 -0.144,-7.344 -2e-5,-3.45591 0.19198,-6.67191 0.576,-9.648 0.47998,-2.9759 1.48797,-5.5679 3.024,-7.776 1.53597,-2.3039 3.69597,-4.12789 6.48,-5.472 2.78396,-1.34389 6.57596,-2.11189 11.376,-2.304 l 0,-2.88 c -2.88004,1.1e-4 -5.56804,0.0961 -8.064,0.288 -2.40003,0.19211 -4.70403,0.57611 -6.912,1.152 -2.11203,0.57611 -4.27203,1.39211 -6.48,2.448 -2.11202,0.96011 -4.32002,2.25611 -6.624,3.888 -0.57602,0.3841 -1.24802,1.2001 -2.016,2.448 -0.76801,1.2481 -1.53601,2.5921 -2.304,4.032 -0.76801,1.3441 -1.48801,2.5441 -2.16,3.6 -0.57601,1.05609 -0.96001,1.58409 -1.152,1.584 l -0.288,0 c -0.28801,-0.67191 -0.67201,-1.67991 -1.152,-3.024 -0.48001,-1.3439 -1.00801,-2.6879 -1.584,-4.032 -0.57601,-1.4399 -1.24801,-2.6399 -2.016,-3.6 -0.672,-1.0559 -1.344,-1.58389 -2.016,-1.584 -0.768,1.1e-4 -1.152,0.3841 -1.152,1.152 l 0,0.72 c 2.4,3.4561 4.12799,7.1041 5.184,10.944 1.05599,3.84009 1.58399,7.87208 1.584,12.096 -1e-5,9.60007 -0.14401,18.91206 -0.432,27.936 -0.19201,9.02404 -0.28801,18.48003 -0.288,28.368 l 0,4.896 c -0.096,0.76802 -0.43201,1.48802 -1.008,2.16 -0.48001,0.57602 -1.00801,1.15202 -1.584,1.728 -0.576,0.57601 -1.104,1.15201 -1.584,1.728 -0.48,0.48001 -0.72,1.00801 -0.72,1.584 0,0.67201 0.24,1.20001 0.72,1.584 0.576,0.38401 1.2,0.72001 1.872,1.008 0.76799,0.28801 1.53599,0.57601 2.304,0.864 0.76799,0.19201 1.39199,0.48001 1.872,0.864 0.28799,0.28801 0.71999,0.67201 1.296,1.152 0.67199,0.38401 1.29599,0.81601 1.872,1.296 0.57599,0.48 1.05599,0.912 1.44,1.296 0.47999,0.288 0.76799,0.48 0.864,0.576 0.67198,0.576 1.43998,1.44 2.304,2.592 0.95998,1.152 2.06398,1.728 3.312,1.728 -2e-5,0 0.76798,-0.72 2.304,-2.16 1.53598,-1.536 3.21597,-3.264 5.04,-5.184 1.82397,-1.91999 3.45597,-3.79199 4.896,-5.616 1.53597,-1.91999 2.30397,-3.31198 2.304,-4.176 -3e-5,-0.86398 -0.43203,-1.29598 -1.296,-1.296 l -3.6,3.168 -0.576,0 c -0.28803,-0.096 -0.76803,-0.28799 -1.44,-0.576 -0.57603,-0.38398 -1.20003,-0.76798 -1.872,-1.152 -0.57603,-0.47998 -1.10403,-0.91198 -1.584,-1.296 -0.38402,-0.47998 -0.57602,-0.91198 -0.576,-1.296 l 0,-45.792 c -2e-5,-0.38394 0.28798,-0.76793 0.864,-1.152 0.57597,-0.47993 1.24797,-0.91193 2.016,-1.296 0.76797,-0.38393 1.48797,-0.67193 2.16,-0.864 0.67197,-0.28793 1.10397,-0.43193 1.296,-0.432 0.096,7e-5 0.33597,0.0961 0.72,0.288 0.38397,0.0961 0.67197,0.24007 0.864,0.432 2.78397,2.49606 5.08796,5.32806 6.912,8.496 1.82396,3.16806 3.26396,6.48005 4.32,9.936 1.05596,3.45605 1.77596,7.05604 2.16,10.8 0.47995,3.64803 0.71995,7.24803 0.72,10.8 -5e-5,5.28002 -0.91205,10.12802 -2.736,14.544 -1.82404,4.41601 -4.17604,8.592 -7.056,12.528 -2.88003,3.84 -6.09603,7.48799 -9.648,10.944 -3.55202,3.55199 -7.05602,7.05598 -10.512,10.512 -0.38402,0.19198 -1.10402,0.62398 -2.16,1.296 -1.05601,0.76798 -1.58401,1.53598 -1.584,2.304"
         id="path2848"
         style="font-size:144px;font-family:Proclamate Light;-inkscape-font-specification:Proclamate Light" />
      <path
         d="m 232.90875,356.14338 c 0,4.41604 0.192,8.25603 0.576,11.52 0.48,3.16803 1.344,6.09602 2.592,8.784 1.24799,2.68802 2.92799,5.28001 5.04,7.776 2.11199,2.40001 4.84799,5.04001 8.208,7.92 1.34398,1.152 2.39998,2.304 3.168,3.456 0.76798,1.056 2.01598,1.584 3.744,1.584 0.19198,0 0.38397,0 0.576,0 0.28797,-0.096 0.43197,-0.144 0.432,-0.144 l 23.184,-14.688 c -5e-5,10e-6 -5e-5,-0.048 0,-0.144 0.096,-0.19199 0.14395,-0.38399 0.144,-0.576 -5e-5,-0.47998 -0.096,-0.86398 -0.288,-1.152 -0.096,-0.38398 -0.43205,-0.57598 -1.008,-0.576 -1.53605,2e-5 -3.07204,0.33602 -4.608,1.008 -1.44004,0.57601 -2.97604,0.86401 -4.608,0.864 -2.78404,1e-5 -5.47203,-0.71998 -8.064,-2.16 -2.49603,-1.53598 -4.75203,-3.40798 -6.768,-5.616 -1.92002,-2.30398 -3.50402,-4.79997 -4.752,-7.488 -1.15202,-2.78397 -1.72802,-5.42396 -1.728,-7.92 -2e-5,-0.57596 0.81598,-1.29596 2.448,-2.16 1.63198,-0.86396 3.64798,-1.77596 6.048,-2.736 2.49597,-1.05596 5.13597,-2.11196 7.92,-3.168 2.87996,-1.05595 5.51996,-2.06395 7.92,-3.024 2.49596,-0.95995 4.55995,-1.82395 6.192,-2.592 1.63195,-0.76795 2.44795,-1.39195 2.448,-1.872 l 0,-0.288 c -0.28805,-0.86395 -0.72005,-2.15994 -1.296,-3.888 -0.48005,-1.82394 -1.10405,-3.79194 -1.872,-5.904 -0.67205,-2.11193 -1.39205,-4.27193 -2.16,-6.48 -0.76804,-2.30393 -1.53604,-4.36793 -2.304,-6.192 -0.76804,-1.82392 -1.53604,-3.31192 -2.304,-4.464 -0.76804,-1.15192 -1.44004,-1.72792 -2.016,-1.728 l -0.576,0 c -1.72804,8e-5 -3.84003,0.33608 -6.336,1.008 -2.49603,0.67208 -4.56003,1.34408 -6.192,2.016 -4.60802,1.92008 -8.44802,4.12808 -11.52,6.624 -3.07201,2.49607 -5.52001,5.37607 -7.344,8.64 -1.824,3.16806 -3.12,6.72006 -3.888,10.656 -0.672,3.93605 -1.008,8.30404 -1.008,13.104 m 14.688,-4.176 c -2e-5,-0.28796 -2e-5,-0.71995 0,-1.296 -2e-5,-0.67195 -0.048,-1.34395 -0.144,-2.016 -2e-5,-0.76795 -2e-5,-1.43995 0,-2.016 -2e-5,-0.67195 -2e-5,-1.15195 0,-1.44 -2e-5,0.19205 -0.048,-0.23995 -0.144,-1.296 -2e-5,-1.15195 0.048,-2.54395 0.144,-4.176 0.096,-1.63194 0.23998,-3.45594 0.432,-5.472 0.28798,-2.01594 0.67198,-3.88793 1.152,-5.616 0.57598,-1.72793 1.34398,-3.16793 2.304,-4.32 0.95998,-1.15193 2.15998,-1.72793 3.6,-1.728 0.57598,7e-5 1.10398,0.52807 1.584,1.584 0.57597,0.96007 1.10397,2.11207 1.584,3.456 0.47997,1.24807 0.91197,2.54407 1.296,3.888 0.38397,1.24806 0.71997,2.16006 1.008,2.736 0.19197,0.48006 0.52797,1.29606 1.008,2.448 0.47997,1.15206 0.95997,2.35206 1.44,3.6 0.47997,1.24805 0.91197,2.35205 1.296,3.312 0.38397,0.96005 0.57597,1.48805 0.576,1.584 -3e-5,0.57605 -0.72003,1.29605 -2.16,2.16 -1.34403,0.76805 -2.92803,1.53605 -4.752,2.304 -1.72802,0.76805 -3.50402,1.44005 -5.328,2.016 -1.72802,0.57604 -2.97602,0.86404 -3.744,0.864 -0.67202,4e-5 -1.05602,-0.19196 -1.152,-0.576"
         id="path2850"
         style="font-size:144px;font-family:Proclamate Light;-inkscape-font-specification:Proclamate Light" />
      <path
         d="m 329.44275,367.23138 c 0.95999,3e-5 2.11199,0.28803 3.456,0.864 1.43998,0.57603 2.44798,1.10403 3.024,1.584 l 23.76,20.736 c 2.39996,2.112 5.27995,3.696 8.64,4.752 3.45595,1.056 6.67194,1.92 9.648,2.592 l 7.344,0 c 6.71993,0 12.67192,-1.2 17.856,-3.6 5.27991,-2.4 10.51191,-5.85599 15.696,-10.368 0.7679,-0.67199 1.3439,-1.15199 1.728,-1.44 0.4799,-0.28799 0.7199,-0.81599 0.72,-1.584 -1e-4,-0.95998 -0.5281,-1.43998 -1.584,-1.44 -0.5761,2e-5 -1.2481,0.24002 -2.016,0.72 -0.7681,0.38402 -1.5841,0.86402 -2.448,1.44 -0.8641,0.57601 -1.68009,1.15201 -2.448,1.728 -0.76809,0.48001 -1.39209,0.86401 -1.872,1.152 -1.92009,0.96001 -3.88809,1.63201 -5.904,2.016 -2.01608,0.28801 -4.08008,0.43201 -6.192,0.432 -3.36008,10e-6 -6.72007,-0.76799 -10.08,-2.304 -3.36007,-1.63199 -6.62406,-3.59998 -9.792,-5.904 -3.16806,-2.30398 -6.19205,-4.75198 -9.072,-7.344 -2.88005,-2.68797 -5.47205,-5.03997 -7.776,-7.056 -1.24804,-1.15197 -2.44804,-2.39997 -3.6,-3.744 -1.15204,-1.43996 -2.40004,-2.78396 -3.744,-4.032 -1.24803,-1.24796 -2.64003,-2.30396 -4.176,-3.168 -1.44003,-0.86396 -3.12003,-1.29596 -5.04,-1.296 -1.72802,4e-5 -3.69602,0.57604 -5.904,1.728 -2.20802,1.05604 -4.41602,2.35204 -6.624,3.888 -2.20801,1.53604 -4.32001,3.16804 -6.336,4.896 -2.01601,1.63203 -3.648,3.02403 -4.896,4.176 l 0,0.864 c 0,1.05603 0.528,1.58403 1.584,1.584 1.05599,3e-5 2.01599,-0.28797 2.88,-0.864 0.95999,-0.67197 2.01599,-1.00797 3.168,-1.008 m 44.208,1.872 c -5e-5,1.24803 0.47995,1.87203 1.44,1.872 2.01594,3e-5 4.41594,-0.62397 7.2,-1.872 2.78393,-1.24797 5.42393,-2.83197 7.92,-4.752 2.59193,-2.01597 4.75192,-4.22396 6.48,-6.624 1.72792,-2.49596 2.59192,-4.99196 2.592,-7.488 -8e-5,-2.49595 -0.72008,-5.03995 -2.16,-7.632 -1.44008,-2.68794 -3.31207,-5.32794 -5.616,-7.92 -2.20807,-2.68794 -4.75207,-5.32793 -7.632,-7.92 -2.78406,-2.59193 -5.56806,-5.13593 -8.352,-7.632 -0.57606,-0.76792 -1.05606,-1.43992 -1.44,-2.016 -0.28805,-0.67192 -0.43205,-1.53592 -0.432,-2.592 -5e-5,-1.15192 0.23995,-2.11192 0.72,-2.88 0.47994,-0.76791 1.00794,-1.48791 1.584,-2.16 0.67194,-0.67191 1.24794,-1.29591 1.728,-1.872 0.47994,-0.67191 0.71994,-1.39191 0.72,-2.16 -2.49606,9e-5 -4.99205,0.57609 -7.488,1.728 -2.40005,1.15209 -4.56005,2.68809 -6.48,4.608 -1.92004,1.82408 -3.50404,3.93608 -4.752,6.336 -1.24804,2.30408 -1.87204,4.65607 -1.872,7.056 -4e-5,1.63207 0.28796,3.45607 0.864,5.472 0.67196,2.01606 1.63196,3.64806 2.88,4.896 l 17.712,17.712 c 0.86394,0.86404 1.39194,1.82404 1.584,2.88 0.19194,0.96004 0.28794,2.01604 0.288,3.168 -6e-5,1.15204 -0.38406,2.20803 -1.152,3.168 -0.76806,0.96003 -1.63206,1.87203 -2.592,2.736 -0.96006,0.76803 -1.82406,1.48803 -2.592,2.16 -0.76805,0.67203 -1.15205,1.24803 -1.152,1.728 m -52.992,-53.424 c 0,3.64808 0.624,7.10407 1.872,10.368 1.248,3.26407 2.97599,6.09606 5.184,8.496 2.20799,2.40006 4.84799,4.32006 7.92,5.76 3.16798,1.34405 6.62398,2.01605 10.368,2.016 2.39997,5e-5 4.51197,-0.14395 6.336,-0.432 1.91996,-0.38395 3.98396,-1.29594 6.192,-2.736 l 0,-0.576 c -4e-5,-0.38394 -0.14404,-0.86394 -0.432,-1.44 -0.28804,-0.67194 -0.67204,-1.00794 -1.152,-1.008 -1.72804,6e-5 -3.45603,0.43206 -5.184,1.296 -1.72803,0.76806 -3.55203,1.15206 -5.472,1.152 -2.88002,6e-5 -5.56802,-0.52794 -8.064,-1.584 -2.40002,-1.15194 -4.51201,-2.68794 -6.336,-4.608 -1.82401,-1.91993 -3.26401,-4.12793 -4.32,-6.624 -0.96001,-2.59193 -1.44001,-5.32792 -1.44,-8.208 -10e-6,-3.55192 0.67199,-6.76791 2.016,-9.648 1.43999,-2.87991 3.31199,-5.32791 5.616,-7.344 2.39998,-2.1119 5.13598,-3.6959 8.208,-4.752 3.16797,-1.1519 6.43197,-1.7279 9.792,-1.728 3.26396,10e-5 6.47996,0.4801 9.648,1.44 3.16795,0.9601 6.23995,2.1601 9.216,3.6 3.07195,1.4401 5.99994,3.07209 8.784,4.896 2.87994,1.82409 5.66393,3.60009 8.352,5.328 1.63193,1.05609 3.26393,2.20808 4.896,3.456 1.63192,1.24808 3.26392,2.40008 4.896,3.456 1.72792,0.96008 3.50392,1.77608 5.328,2.448 1.91991,0.67208 3.88791,1.00808 5.904,1.008 2.30391,8e-5 4.51191,-0.52792 6.624,-1.584 2.1119,-1.05592 4.1279,-2.35192 6.048,-3.888 1.9199,-1.53592 3.69589,-3.16791 5.328,-4.896 1.72789,-1.82391 3.35989,-3.45591 4.896,-4.896 l 0,-0.576 c -1.1e-4,-0.76791 -0.28811,-1.24791 -0.864,-1.44 -0.48011,-0.28791 -1.00811,-0.43191 -1.584,-0.432 -1.24811,9e-5 -2.40011,0.33609 -3.456,1.008 -0.96011,0.57609 -2.1601,0.86409 -3.6,0.864 -2.1121,9e-5 -4.3681,-0.57591 -6.768,-1.728 -2.40009,-1.2479 -4.84809,-2.6879 -7.344,-4.32 -2.40009,-1.6319 -4.80008,-3.3119 -7.2,-5.04 -2.30408,-1.72789 -4.46408,-3.11989 -6.48,-4.176 -3.07207,-1.63189 -6.04807,-2.97589 -8.928,-4.032 -2.88006,-1.15189 -5.80806,-2.06389 -8.784,-2.736 -2.88005,-0.67188 -5.90405,-1.15188 -9.072,-1.44 -3.07205,-0.28788 -6.33604,-0.43188 -9.792,-0.432 -4.60803,1.2e-4 -9.12003,1.00812 -13.536,3.024 -4.41602,1.92011 -8.40002,4.56011 -11.952,7.92 -3.45601,3.2641 -6.28801,7.0561 -8.496,11.376 -2.112,4.22409 -3.168,8.68809 -3.168,13.392"
         id="path2852"
         style="font-size:144px;font-family:Proclamate Light;-inkscape-font-specification:Proclamate Light" />
      <path
         d="m 434.54588,331.23138 0.28799,0 c 0.288,0.19206 0.96,0.67206 2.016,1.44 1.056,0.76806 1.58399,1.34406 1.584,1.728 l 0,46.8 c -1e-5,2.30401 0.43199,4.32001 1.296,6.048 0.86399,1.72801 1.96799,3.26401 3.312,4.608 1.43999,1.344 3.02399,2.544 4.75201,3.6 1.82397,1.056 3.59997,2.016 5.32799,2.88 l 0.576,0 c 0.28798,0 0.91198,-0.672 1.87201,-2.016 0.95997,-1.344 2.01597,-2.928 3.16799,-4.752 1.15197,-1.82399 2.25597,-3.64799 3.312,-5.472 1.15197,-1.82399 2.06397,-3.21599 2.73601,-4.176 0.19196,-0.47999 0.33596,-0.76798 0.43199,-0.864 0.096,-0.19198 0.14397,-0.52798 0.144,-1.008 -3e-5,-0.86398 -0.43203,-1.29598 -1.296,-1.296 -0.76803,2e-5 -1.39203,0.33602 -1.872,1.008 -0.38403,0.67202 -0.96003,1.00802 -1.728,1.008 -1.34403,2e-5 -2.59202,-0.57598 -3.744,-1.728 -1.15202,-1.24798 -1.72802,-2.54398 -1.728,-3.888 l 0,-39.024 c -2e-5,-1.63194 0.67198,-2.92794 2.01601,-3.888 1.43996,-0.95993 2.78396,-1.67993 4.03199,-2.16 l 0,-1.296 c -1.82403,-1.05593 -3.45602,-2.06393 -4.896,-3.024 -1.34402,-1.05593 -2.68802,-2.15993 -4.032,-3.312 -1.24802,-1.15192 -2.54402,-2.39992 -3.888,-3.744 -1.24801,-1.34392 -2.64001,-2.83192 -4.176,-4.464 l -0.43199,0 c -0.28802,8e-5 -1.20002,0.91208 -2.73601,2.736 -1.53601,1.82408 -3.168,3.88808 -4.89599,6.192 -1.72801,2.20807 -3.26401,4.32007 -4.608,6.336 -1.34401,1.92006 -2.01601,2.97606 -2.01601,3.168 0,0.38406 0,0.76806 0,1.152 0.096,0.38406 0.384,0.57606 0.864,0.576 l 0.288,0 c 0.864,-0.28794 1.536,-0.86394 2.016,-1.728 0.576,-0.95994 1.248,-1.43993 2.01601,-1.44 m 5.76,-34.704 c -2e-5,0.7681 0.096,1.7281 0.288,2.88 0.28798,1.0561 0.62398,2.11209 1.00799,3.168 0.47999,1.05609 1.05599,1.96809 1.72801,2.736 0.67198,0.67209 1.48798,1.00809 2.44799,1.008 1.63199,9e-5 3.21598,-0.33591 4.752,-1.008 1.63198,-0.76791 3.02398,-1.72791 4.176,-2.88 1.24798,-1.1519 2.20798,-2.4959 2.88,-4.032 0.76797,-1.5359 1.15197,-3.1199 1.152,-4.752 -3e-5,-2.49589 -0.76803,-4.36789 -2.304,-5.616 -1.53602,-1.24789 -3.45602,-1.87189 -5.76,-1.872 -3.16801,1.1e-4 -5.71201,0.91211 -7.632,2.736 -1.82401,1.72811 -2.73601,4.2721 -2.73599,7.632"
         id="path2854"
         style="font-size:144px;font-family:Proclamate Light;-inkscape-font-specification:Proclamate Light" />
      <path
         d="m 545.211,385.37538 c 0.19192,1.15201 0.81592,2.49601 1.872,4.032 1.05592,1.53601 2.25592,3.024 3.6,4.464 1.43991,1.344 2.92791,2.496 4.464,3.456 1.53591,0.96 2.87991,1.44 4.032,1.44 l 0.72,0 c 0.67191,-1.152 1.58391,-2.592 2.736,-4.32 1.2479,-1.824 2.3999,-3.59999 3.456,-5.328 1.1519,-1.82399 2.1119,-3.40799 2.88,-4.752 0.8639,-1.34399 1.2959,-2.15999 1.296,-2.448 -1e-4,-0.28799 -0.0481,-0.57599 -0.144,-0.864 -1e-4,-0.38398 -0.2401,-0.57598 -0.72,-0.576 -0.5761,2e-5 -1.1041,0.096 -1.584,0.288 -0.4801,0.19202 -1.0081,0.28802 -1.584,0.288 -1.0561,2e-5 -2.2081,-0.38398 -3.456,-1.152 -1.15209,-0.76798 -1.72809,-1.82398 -1.728,-3.168 l 0,-38.448 c -9e-5,-2.30394 0.28791,-4.03194 0.864,-5.184 0.6719,-1.24794 1.3919,-2.20793 2.16,-2.88 0.8639,-0.67193 1.5839,-1.19993 2.16,-1.584 0.6719,-0.38393 1.0079,-0.91193 1.008,-1.584 -1e-4,-0.47993 -0.3841,-0.95993 -1.152,-1.44 -0.7681,-0.47993 -1.6801,-0.95993 -2.736,-1.44 -0.9601,-0.47993 -1.96809,-0.95993 -3.024,-1.44 -0.96009,-0.47993 -1.72809,-0.95993 -2.304,-1.44 -0.38409,-0.28792 -1.00809,-0.81592 -1.872,-1.584 -0.86409,-0.76792 -1.77609,-1.53592 -2.736,-2.304 -0.96009,-0.86392 -1.87208,-1.67992 -2.736,-2.448 -0.86408,-0.76792 -1.48808,-1.29592 -1.872,-1.584 l -0.288,0 c -0.19208,8e-5 -1.00808,0.62408 -2.448,1.872 -1.44008,1.15208 -3.12008,2.59208 -5.04,4.32 -1.92007,1.63208 -3.88807,3.36007 -5.904,5.184 -2.01607,1.72807 -3.74406,3.21607 -5.184,4.464 l -0.288,0 c -0.28806,7e-5 -0.76806,-0.76793 -1.44,-2.304 -0.57606,-1.63193 -1.44006,-3.40793 -2.592,-5.328 -1.05606,-2.01592 -2.49606,-3.79192 -4.32,-5.328 -1.82405,-1.63192 -4.08005,-2.44792 -6.768,-2.448 -0.19205,8e-5 -0.43205,0.0481 -0.72,0.144 -0.19205,8e-5 -0.28805,8e-5 -0.288,0 l -17.136,15.264 -0.288,0 c -0.28803,7e-5 -0.52803,-0.33593 -0.72,-1.008 -0.19203,-0.67193 -0.43203,-1.43993 -0.72,-2.304 -0.28803,-0.86393 -0.57603,-1.72793 -0.864,-2.592 -0.28803,-0.86393 -0.62403,-1.53593 -1.008,-2.016 -1.53602,-1.82392 -3.36002,-3.35992 -5.472,-4.608 -2.01602,-1.34392 -4.08002,-2.44792 -6.192,-3.312 l -0.288,-0.144 c -0.28801,8e-5 -1.10401,0.86408 -2.448,2.592 -1.24801,1.72808 -2.64001,3.69608 -4.176,5.904 -1.53601,2.11207 -2.928,4.22407 -4.176,6.336 -1.152,2.01607 -1.728,3.31206 -1.728,3.888 0,0.67206 0.432,1.00806 1.296,1.008 0.864,6e-5 1.536,-0.33594 2.016,-1.008 0.57599,-0.67193 1.39199,-1.00793 2.448,-1.008 1.05599,7e-5 1.96799,0.48006 2.736,1.44 0.86399,0.86406 1.29599,1.82406 1.296,2.88 l 0,39.744 c -1e-5,1.05602 -0.28801,1.96802 -0.864,2.736 -0.57601,0.76802 -1.24801,1.48802 -2.016,2.16 -0.67201,0.57602 -1.29601,1.15202 -1.872,1.728 -0.57601,0.48001 -0.86401,0.96001 -0.864,1.44 -10e-6,0.57601 0.38399,1.29601 1.152,2.16 0.86399,0.76801 1.82399,1.58401 2.88,2.448 1.05599,0.86401 2.06399,1.72801 3.024,2.592 1.05599,0.76801 1.77599,1.344 2.16,1.728 0.28798,0.288 0.62398,0.768 1.008,1.44 0.38398,0.576 0.76798,1.2 1.152,1.872 0.47998,0.576 0.95998,1.104 1.44,1.584 0.57598,0.48 1.10398,0.72 1.584,0.72 l 1.008,0 c 0.38398,-0.864 1.24798,-2.064 2.592,-3.6 1.43997,-1.632 2.87997,-3.21599 4.32,-4.752 1.53597,-1.63199 2.87997,-3.02399 4.032,-4.176 1.24797,-1.24799 1.87197,-1.96799 1.872,-2.16 -3e-5,-0.38399 -0.28803,-0.81599 -0.864,-1.296 -0.57603,-0.57598 -1.24803,-1.19998 -2.016,-1.872 -0.67203,-0.76798 -1.29603,-1.58398 -1.872,-2.448 -0.57603,-0.86398 -0.86403,-1.87198 -0.864,-3.024 l 0,-39.6 c -3e-5,-0.38394 0.38397,-0.91194 1.152,-1.584 0.76797,-0.76794 1.63197,-1.48794 2.592,-2.16 1.05597,-0.67193 2.11197,-1.24793 3.168,-1.728 1.05596,-0.47993 1.82396,-0.71993 2.304,-0.72 1.15196,7e-5 2.15996,0.28807 3.024,0.864 0.86396,0.57607 1.63196,1.34407 2.304,2.304 0.67196,0.86406 1.15196,1.87206 1.44,3.024 0.38396,1.05606 0.57596,2.06406 0.576,3.024 l 0,35.424 c -4e-5,1.63202 -0.28804,2.97602 -0.864,4.032 -0.57604,0.96002 -1.24804,1.82402 -2.016,2.592 -0.67204,0.67202 -1.29604,1.24802 -1.872,1.728 -0.57604,0.48001 -0.86404,0.96001 -0.864,1.44 -4e-5,0.096 -4e-5,0.28801 0,0.576 -4e-5,0.28801 0.048,0.48001 0.144,0.576 2.78396,2.30401 5.13596,4.41601 7.056,6.336 1.91995,1.824 3.83995,4.224 5.76,7.2 l 0.576,0 c 0.38395,0 0.81595,-0.288 1.296,-0.864 0.47995,-0.576 1.00794,-1.248 1.584,-2.016 0.57594,-0.768 1.10394,-1.536 1.584,-2.304 0.57594,-0.864 1.10394,-1.58399 1.584,-2.16 0.38394,-0.47999 1.00794,-1.00799 1.872,-1.584 0.95994,-0.57599 1.87194,-1.19999 2.736,-1.872 0.95994,-0.67199 1.77593,-1.34399 2.448,-2.016 0.67193,-0.76799 1.00793,-1.53599 1.008,-2.304 -7e-5,-0.38399 -0.28807,-0.81599 -0.864,-1.296 -0.57607,-0.47998 -1.24806,-1.00798 -2.016,-1.584 -0.67206,-0.67198 -1.29606,-1.43998 -1.872,-2.304 -0.57606,-0.86398 -0.86406,-1.87198 -0.864,-3.024 l 0,-39.6 c -6e-5,-0.19194 0.33594,-0.62394 1.008,-1.296 0.76794,-0.67194 1.63194,-1.34394 2.592,-2.016 0.95993,-0.76793 1.91993,-1.43993 2.88,-2.016 0.95993,-0.57593 1.67993,-0.86393 2.16,-0.864 0.57593,7e-5 1.24793,0.24007 2.016,0.72 0.86393,0.48007 1.72793,1.05607 2.592,1.728 0.86392,0.67206 1.58392,1.44006 2.16,2.304 0.67192,0.76806 1.05592,1.44006 1.152,2.016 -0.0961,2.20806 -0.14408,4.46406 -0.144,6.768 -8e-5,2.20805 -8e-5,4.41605 0,6.624 -8e-5,6.14404 0.0479,12.28804 0.144,18.432 0.19192,6.04802 0.38392,12.14402 0.576,18.288"
         id="path2856"
         style="font-size:144px;font-family:Proclamate Light;-inkscape-font-specification:Proclamate Light" />
      <path
         d="m 573.22125,356.14338 c 0,4.41604 0.192,8.25603 0.576,11.52 0.48,3.16803 1.344,6.09602 2.592,8.784 1.24799,2.68802 2.92799,5.28001 5.04,7.776 2.11199,2.40001 4.84799,5.04001 8.208,7.92 1.34398,1.152 2.39998,2.304 3.168,3.456 0.76798,1.056 2.01598,1.584 3.744,1.584 0.19198,0 0.38397,0 0.576,0 0.28797,-0.096 0.43197,-0.144 0.432,-0.144 l 23.184,-14.688 c -5e-5,10e-6 -5e-5,-0.048 0,-0.144 0.096,-0.19199 0.14395,-0.38399 0.144,-0.576 -5e-5,-0.47998 -0.096,-0.86398 -0.288,-1.152 -0.096,-0.38398 -0.43205,-0.57598 -1.008,-0.576 -1.53605,2e-5 -3.07204,0.33602 -4.608,1.008 -1.44004,0.57601 -2.97604,0.86401 -4.608,0.864 -2.78404,1e-5 -5.47203,-0.71998 -8.064,-2.16 -2.49603,-1.53598 -4.75203,-3.40798 -6.768,-5.616 -1.92002,-2.30398 -3.50402,-4.79997 -4.752,-7.488 -1.15202,-2.78397 -1.72802,-5.42396 -1.728,-7.92 -2e-5,-0.57596 0.81598,-1.29596 2.448,-2.16 1.63198,-0.86396 3.64798,-1.77596 6.048,-2.736 2.49597,-1.05596 5.13597,-2.11196 7.92,-3.168 2.87996,-1.05595 5.51996,-2.06395 7.92,-3.024 2.49596,-0.95995 4.55995,-1.82395 6.192,-2.592 1.63195,-0.76795 2.44795,-1.39195 2.448,-1.872 l 0,-0.288 c -0.28805,-0.86395 -0.72005,-2.15994 -1.296,-3.888 -0.48005,-1.82394 -1.10405,-3.79194 -1.872,-5.904 -0.67205,-2.11193 -1.39205,-4.27193 -2.16,-6.48 -0.76804,-2.30393 -1.53604,-4.36793 -2.304,-6.192 -0.76804,-1.82392 -1.53604,-3.31192 -2.304,-4.464 -0.76804,-1.15192 -1.44004,-1.72792 -2.016,-1.728 l -0.576,0 c -1.72804,8e-5 -3.84003,0.33608 -6.336,1.008 -2.49603,0.67208 -4.56003,1.34408 -6.192,2.016 -4.60802,1.92008 -8.44802,4.12808 -11.52,6.624 -3.07201,2.49607 -5.52001,5.37607 -7.344,8.64 -1.824,3.16806 -3.12,6.72006 -3.888,10.656 -0.672,3.93605 -1.008,8.30404 -1.008,13.104 m 14.688,-4.176 c -2e-5,-0.28796 -2e-5,-0.71995 0,-1.296 -2e-5,-0.67195 -0.048,-1.34395 -0.144,-2.016 -2e-5,-0.76795 -2e-5,-1.43995 0,-2.016 -2e-5,-0.67195 -2e-5,-1.15195 0,-1.44 -2e-5,0.19205 -0.048,-0.23995 -0.144,-1.296 -2e-5,-1.15195 0.048,-2.54395 0.144,-4.176 0.096,-1.63194 0.23998,-3.45594 0.432,-5.472 0.28798,-2.01594 0.67198,-3.88793 1.152,-5.616 0.57598,-1.72793 1.34398,-3.16793 2.304,-4.32 0.95998,-1.15193 2.15998,-1.72793 3.6,-1.728 0.57598,7e-5 1.10398,0.52807 1.584,1.584 0.57597,0.96007 1.10397,2.11207 1.584,3.456 0.47997,1.24807 0.91197,2.54407 1.296,3.888 0.38397,1.24806 0.71997,2.16006 1.008,2.736 0.19197,0.48006 0.52797,1.29606 1.008,2.448 0.47997,1.15206 0.95997,2.35206 1.44,3.6 0.47997,1.24805 0.91197,2.35205 1.296,3.312 0.38397,0.96005 0.57597,1.48805 0.576,1.584 -3e-5,0.57605 -0.72003,1.29605 -2.16,2.16 -1.34403,0.76805 -2.92803,1.53605 -4.752,2.304 -1.72802,0.76805 -3.50402,1.44005 -5.328,2.016 -1.72802,0.57604 -2.97602,0.86404 -3.744,0.864 -0.67202,4e-5 -1.05602,-0.19196 -1.152,-0.576"
         id="path2858"
         style="font-size:144px;font-family:Proclamate Light;-inkscape-font-specification:Proclamate Light" />
      <path
         d="m 625.54725,381.91938 c 2.304,0.86401 4.65599,1.82401 7.056,2.88 2.49599,0.96001 4.79999,1.92001 6.912,2.88 2.20798,0.96001 4.17598,1.92001 5.904,2.88 1.72798,0.864 3.02398,1.632 3.888,2.304 0.28797,0.288 0.57597,0.672 0.864,1.152 0.28797,0.48 0.52797,0.96 0.72,1.44 0.28797,0.48 0.57597,0.912 0.864,1.296 0.28797,0.288 0.62397,0.432 1.008,0.432 l 0.288,0 c 2.11197,-2.112 4.75197,-4.416 7.92,-6.912 3.26396,-2.59199 6.38396,-5.32799 9.36,-8.208 2.97595,-2.87998 5.51995,-5.95198 7.632,-9.216 2.11194,-3.35997 3.16794,-6.86397 3.168,-10.512 -6e-5,-1.91996 -0.43206,-3.69596 -1.296,-5.328 -0.76806,-1.72796 -1.77605,-3.31196 -3.024,-4.752 -1.24805,-1.53595 -2.59205,-2.97595 -4.032,-4.32 -1.34405,-1.34395 -2.64005,-2.63995 -3.888,-3.888 l 0,-2.448 c 1.72795,-1.53594 3.45595,-3.11994 5.184,-4.752 1.72795,-1.63194 3.26395,-3.35994 4.608,-5.184 1.43994,-1.91993 2.59194,-3.93593 3.456,-6.048 0.95994,-2.11193 1.43994,-4.41592 1.44,-6.912 -6e-5,-3.26392 -0.72006,-6.14392 -2.16,-8.64 -1.44006,-2.59191 -3.31205,-4.75191 -5.616,-6.48 -2.30405,-1.72791 -4.94405,-3.0239 -7.92,-3.888 -2.97604,-0.9599 -6.00004,-1.4399 -9.072,-1.44 l -0.288,0.144 c -1.05603,0.1921 -2.44803,0.5761 -4.176,1.152 -1.72803,0.4801 -2.78403,0.9121 -3.168,1.296 l 0,0.288 c -3e-5,1.05609 0.47997,1.58409 1.44,1.584 1.15197,9e-5 2.20797,-0.0959 3.168,-0.288 1.05597,-0.28791 2.25597,-0.43191 3.6,-0.432 1.82396,9e-5 3.93596,0.24009 6.336,0.72 2.49596,0.38409 4.79995,1.10409 6.912,2.16 2.20795,1.05609 4.07995,2.44809 5.616,4.176 1.53594,1.72809 2.30394,3.84008 2.304,6.336 -6e-5,2.49608 -0.96006,4.46408 -2.88,5.904 -1.92005,1.44007 -4.03205,2.16007 -6.336,2.16 -3.64804,7e-5 -6.96004,-0.95993 -9.936,-2.88 -2.88003,-2.01592 -5.66403,-4.12792 -8.352,-6.336 l -0.288,0 c -0.48003,8e-5 -1.48803,0.57608 -3.024,1.728 -1.53602,1.15208 -3.26402,2.59208 -5.184,4.32 -1.92002,1.72807 -3.93602,3.55207 -6.048,5.472 -2.11201,1.82407 -3.98401,3.45607 -5.616,4.896 -1.92001,2.20806 -3.55201,4.41606 -4.896,6.624 -1.248,2.20806 -1.872,4.75205 -1.872,7.632 0,2.40005 0.528,4.51205 1.584,6.336 1.15199,1.82404 2.35199,3.55204 3.6,5.184 1.34399,1.53604 2.54399,3.02404 3.6,4.464 1.15199,1.44003 1.72799,3.02403 1.728,4.752 l 0,0.72 c -1e-5,0.96003 -0.24001,1.68003 -0.72,2.16 l -10.944,12.096 c 0,0.76801 0.192,1.20001 0.576,1.296 m 13.968,-12.24 c -2e-5,-0.096 -2e-5,-0.19197 0,-0.288 0.096,-0.19197 0.14398,-0.28797 0.144,-0.288 l 13.968,-12.816 c -3e-5,4e-5 0.096,4e-5 0.288,0 0.28797,-0.096 0.47997,-0.14396 0.576,-0.144 0.76797,4e-5 2.01597,0.67204 3.744,2.016 1.72796,1.34404 3.45596,2.92804 5.184,4.752 1.82396,1.72803 3.40796,3.55203 4.752,5.472 1.34395,1.82403 2.01595,3.21602 2.016,4.176 -5e-5,0.86402 -0.14405,1.82402 -0.432,2.88 -0.28805,0.96002 -0.72005,1.92002 -1.296,2.88 -0.48004,0.86402 -1.15204,1.58402 -2.016,2.16 -0.76804,0.57602 -1.68004,0.86401 -2.736,0.864 -0.86404,10e-6 -2.59204,-0.57598 -5.184,-1.728 -2.59203,-1.15198 -5.32803,-2.39998 -8.208,-3.744 -2.78402,-1.43998 -5.28002,-2.78398 -7.488,-4.032 -2.20802,-1.24797 -3.31202,-1.96797 -3.312,-2.16 m -3.024,-34.416 c -1e-5,-0.76794 0.19199,-1.58394 0.576,-2.448 0.38399,-0.95994 0.86399,-1.82393 1.44,-2.592 0.67198,-0.76793 1.39198,-1.39193 2.16,-1.872 0.76798,-0.57593 1.53598,-0.86393 2.304,-0.864 0.28798,7e-5 0.67198,0.0481 1.152,0.144 0.57598,7e-5 0.91198,7e-5 1.008,0 l 1.152,0.576 c 0.28798,0.19207 0.86398,0.57607 1.728,1.152 0.95997,0.48007 1.91997,1.05607 2.88,1.728 1.05597,0.57606 2.01597,1.15206 2.88,1.728 0.95997,0.48006 1.53597,0.76806 1.728,0.864 0.67197,0.38406 1.53597,0.81606 2.592,1.296 1.15196,0.38406 2.30396,0.81606 3.456,1.296 1.15196,0.48006 2.20796,0.96006 3.168,1.44 0.95996,0.48006 1.53596,0.96006 1.728,1.44 -1.63204,1.92006 -3.31204,3.69605 -5.04,5.328 -1.63204,1.53605 -3.12003,2.88005 -4.464,4.032 -1.34403,1.15205 -2.49603,2.06405 -3.456,2.736 -0.86403,0.57604 -1.29603,0.86404 -1.296,0.864 -0.96003,4e-5 -2.35203,-0.62396 -4.176,-1.872 -1.72802,-1.34395 -3.45602,-2.92795 -5.184,-4.752 -1.72802,-1.82395 -3.21602,-3.69595 -4.464,-5.616 -1.24801,-1.91994 -1.87201,-3.45594 -1.872,-4.608"
         id="path2860"
         style="font-size:144px;font-family:Proclamate Light;-inkscape-font-specification:Proclamate Light" />
      <path
         d="m 732.501,390.41538 c 1.43999,10e-6 2.87999,0.43201 4.32,1.296 1.43998,0.768 2.83198,1.776 4.176,3.024 1.43998,1.248 2.87998,2.592 4.32,4.032 1.53597,1.536 3.11997,3.02399 4.752,4.464 3.64797,3.16799 7.53596,5.66399 11.664,7.488 4.22396,1.91998 8.78395,2.87998 13.68,2.88 4.12794,-2e-5 8.39994,-0.72002 12.816,-2.16 4.51193,-1.44001 8.78392,-3.40801 12.816,-5.904 4.03192,-2.49601 7.63191,-5.424 10.8,-8.784 3.16791,-3.456 5.5679,-7.19999 7.2,-11.232 0.9599,-2.39999 1.5839,-4.84798 1.872,-7.344 0.3839,-2.59198 0.5759,-5.18398 0.576,-7.776 -1e-4,-2.39997 -0.4801,-4.99197 -1.44,-7.776 -0.9601,-2.87996 -2.1601,-5.85596 -3.6,-8.928 -1.44009,-3.07195 -3.07209,-6.23995 -4.896,-9.504 -1.82409,-3.26394 -3.60009,-6.57594 -5.328,-9.936 -0.76808,-2.30394 -1.48808,-4.36793 -2.16,-6.192 -0.67208,-1.91993 -1.00808,-4.12793 -1.008,-6.624 -8e-5,-2.39992 0.47992,-4.51192 1.44,-6.336 1.05592,-1.82392 2.30391,-3.40792 3.744,-4.752 1.43991,-1.34391 3.02391,-2.54391 4.752,-3.6 1.82391,-1.05591 3.4559,-2.01591 4.896,-2.88 1.4399,-0.95991 2.6399,-1.87191 3.6,-2.736 1.0559,-0.9599 1.5839,-2.0159 1.584,-3.168 -0.2881,1e-4 -0.9121,1e-4 -1.872,0 -0.9601,-0.0959 -1.9681,-0.1439 -3.024,-0.144 -0.9601,1e-4 -1.9201,1e-4 -2.88,0 -0.96009,-0.0959 -1.58409,-0.1439 -1.872,-0.144 -1.63209,-0.1919 -3.16809,-0.9119 -4.608,-2.16 -1.44009,-1.2479 -2.73608,-2.3519 -3.888,-3.312 -2.59208,-2.30389 -5.18408,-4.41589 -7.776,-6.336 -2.49607,-2.01589 -5.13607,-3.79189 -7.92,-5.328 -2.78407,-1.53588 -5.71206,-2.73588 -8.784,-3.6 -3.07206,-0.86388 -6.38405,-1.29588 -9.936,-1.296 -4.99204,1.2e-4 -9.84004,1.00812 -14.544,3.024 -4.70403,2.01612 -8.88003,4.75211 -12.528,8.208 -3.55202,3.36011 -6.43202,7.3441 -8.64,11.952 -2.11201,4.51209 -3.16801,9.31209 -3.168,14.4 -10e-6,4.41608 0.71999,8.64007 2.16,12.672 1.43999,4.03207 3.45598,7.58406 6.048,10.656 2.68798,2.97606 5.90398,5.37605 9.648,7.2 3.74397,1.82405 7.96796,2.73605 12.672,2.736 3.35996,5e-5 6.47995,-0.23995 9.36,-0.72 2.87995,-0.47995 5.90394,-1.48795 9.072,-3.024 l 0,-0.864 c -6e-5,-0.57595 -0.0481,-1.19994 -0.144,-1.872 -0.0961,-0.67194 -0.52806,-1.00794 -1.296,-1.008 -1.05606,6e-5 -2.16006,0.19206 -3.312,0.576 -1.15205,0.28806 -2.30405,0.62406 -3.456,1.008 -1.15205,0.38406 -2.35205,0.76805 -3.6,1.152 -1.24805,0.28805 -2.49605,0.43205 -3.744,0.432 -3.74404,5e-5 -7.29604,-0.57595 -10.656,-1.728 -3.26403,-1.15194 -6.14403,-2.78394 -8.64,-4.896 -2.40002,-2.20794 -4.32002,-4.89593 -5.76,-8.064 -1.44002,-3.16793 -2.16002,-6.71992 -2.16,-10.656 -2e-5,-2.97592 0.57598,-5.90391 1.728,-8.784 1.15198,-2.97591 2.73598,-5.61591 4.752,-7.92 2.01597,-2.3999 4.36797,-4.3199 7.056,-5.76 2.78397,-1.4399 5.75996,-2.1599 8.928,-2.16 4.41596,10e-5 8.20795,0.9121 11.376,2.736 3.26395,1.7281 6.33594,3.6961 9.216,5.904 2.97594,2.11209 5.99993,4.12809 9.072,6.048 3.07193,1.82409 6.62392,2.83209 10.656,3.024 l 0.72,0.576 c -0.0961,9e-5 -0.24008,0.0961 -0.432,0.288 -0.0961,0.0961 -0.19208,0.19209 -0.288,0.288 -2.01608,1.72808 -3.93608,3.40808 -5.76,5.04 -1.82407,1.63208 -3.45607,3.36008 -4.896,5.184 -1.44007,1.72807 -2.59207,3.64807 -3.456,5.76 -0.76806,2.11207 -1.15206,4.60806 -1.152,7.488 -6e-5,5.18406 1.05593,10.08005 3.168,14.688 2.20793,4.51204 4.60793,8.92804 7.2,13.248 2.68792,4.32003 5.08792,8.59203 7.2,12.816 2.20792,4.22402 3.31191,8.64001 3.312,13.248 -9e-5,2.11201 -0.48008,4.08 -1.44,5.904 -0.96008,1.824 -2.25608,3.408 -3.888,4.752 -1.53608,1.44 -3.31208,2.54399 -5.328,3.312 -1.92007,0.86399 -3.88807,1.29599 -5.904,1.296 -2.88007,-1e-5 -5.56806,-0.67201 -8.064,-2.016 -2.40006,-1.248 -4.70406,-2.832 -6.912,-4.752 -2.11205,-1.92 -4.22405,-4.032 -6.336,-6.336 -2.11205,-2.30399 -4.32004,-4.41599 -6.624,-6.336 -2.20804,-1.91999 -4.60804,-3.50398 -7.2,-4.752 -2.49603,-1.34398 -5.32803,-2.01598 -8.496,-2.016 -4.89602,2e-5 -9.26402,1.29602 -13.104,3.888 -3.74401,2.49601 -7.2,5.47201 -10.368,8.928 0,0.096 -0.048,0.24001 -0.144,0.432 0,0.19201 0,0.33601 0,0.432 0,1.056 0.576,1.584 1.728,1.584 1.344,0 2.63999,-0.384 3.888,-1.152 1.34399,-0.86399 2.83199,-1.29599 4.464,-1.296"
         id="path2862"
         style="font-size:144px;font-family:Proclamate Light;-inkscape-font-specification:Proclamate Light" />
      <path
         d="m 824.94,379.32738 0,0.576 c 0,0.38402 0.048,0.62402 0.144,0.72 0.192,2e-5 0.528,0.096 1.008,0.288 2.49599,1.05601 5.03999,2.11201 7.632,3.168 2.59199,0.96001 5.08798,2.06401 7.488,3.312 2.49598,1.15201 4.84798,2.54401 7.056,4.176 2.20797,1.632 4.17597,3.552 5.904,5.76 l 1.584,0 c 0.38397,0 0.67197,-0.192 0.864,-0.576 1.82397,-2.88 3.69596,-5.28 5.616,-7.2 2.01596,-2.01599 4.03196,-3.88799 6.048,-5.616 2.11195,-1.72799 4.22395,-3.45598 6.336,-5.184 2.11195,-1.82398 4.27194,-3.98398 6.48,-6.48 0.57594,-0.67198 1.24794,-1.53597 2.016,-2.592 0.86394,-1.15197 1.67994,-2.30397 2.448,-3.456 0.86394,-1.24797 1.53594,-2.44797 2.016,-3.6 0.57594,-1.24797 0.86394,-2.30396 0.864,-3.168 l 0,-12.816 c -6e-5,-2.59195 -0.62406,-5.03995 -1.872,-7.344 -1.15206,-2.39994 -2.54406,-4.70394 -4.176,-6.912 -1.63206,-2.20793 -3.26406,-4.36793 -4.896,-6.48 -1.63205,-2.20793 -2.88005,-4.41593 -3.744,-6.624 -0.096,-0.28792 -0.28805,-0.71992 -0.576,-1.296 -0.19205,-0.67192 -0.43205,-1.34392 -0.72,-2.016 -0.19205,-0.76792 -0.43205,-1.43992 -0.72,-2.016 -0.19205,-0.67192 -0.33605,-1.15192 -0.432,-1.44 l -0.576,0 c -1.63205,8e-5 -3.36004,0.48008 -5.184,1.44 -1.72804,0.96008 -3.26404,1.68008 -4.608,2.16 -4.60803,1.72808 -9.21603,3.26408 -13.824,4.608 -4.60802,1.34407 -9.36001,2.25607 -14.256,2.736 l -1.152,48.24 c -10e-6,0.86402 -0.38401,1.63202 -1.152,2.304 -0.67201,0.57602 -1.44001,1.15202 -2.304,1.728 -0.864,0.48002 -1.632,1.00802 -2.304,1.584 -0.672,0.57602 -1.008,1.24802 -1.008,2.016 m 23.76,-7.056 0,-5.472 c -3e-5,-7.00796 0.048,-13.82396 0.144,-20.448 0.19197,-6.62394 0.38397,-13.63194 0.576,-21.024 0.47997,-0.86393 1.34397,-1.48793 2.592,-1.872 1.24797,-0.38393 2.30397,-0.57593 3.168,-0.576 0.19197,7e-5 0.67197,0.57607 1.44,1.728 0.76797,1.15207 1.58397,2.49607 2.448,4.032 0.95996,1.44007 1.82396,2.88006 2.592,4.32 0.86396,1.34406 1.43996,2.25606 1.728,2.736 2.30396,3.36006 4.51196,7.00805 6.624,10.944 2.11195,3.93605 3.16795,8.06404 3.168,12.384 -5e-5,1.15204 -0.19205,2.97603 -0.576,5.472 -0.38405,2.40003 -0.96005,4.84803 -1.728,7.344 -0.76805,2.40002 -1.77605,4.51202 -3.024,6.336 -1.15204,1.82402 -2.54404,2.73602 -4.176,2.736 l -0.864,0 c -2.20804,-1.43998 -4.65603,-2.78398 -7.344,-4.032 -2.68803,-1.24798 -4.94403,-2.78398 -6.768,-4.608"
         id="path2864"
         style="font-size:144px;font-family:Proclamate Light;-inkscape-font-specification:Proclamate Light" />
      <path
         d="m 893.05988,384.36738 c -10e-6,0.38401 0.67199,1.10401 2.01599,2.16 1.344,0.96001 2.88,2.11201 4.608,3.456 1.82399,1.24801 3.59999,2.544 5.32801,3.888 1.72798,1.344 3.02398,2.448 3.88799,3.312 l 0.576,0 c 0.28798,0 0.81598,-0.24 1.58401,-0.72 0.86397,-0.48 1.87197,-1.152 3.024,-2.016 1.15197,-0.864 2.44797,-1.824 3.88799,-2.88 1.43997,-1.15199 2.87997,-2.35199 4.32,-3.6 0.38397,-0.28799 1.00797,-0.76799 1.872,-1.44 0.86397,-0.67199 1.72797,-1.34399 2.59201,-2.016 0.95996,-0.67199 1.82396,-1.24799 2.592,-1.728 0.86395,-0.57599 1.48795,-0.86399 1.87199,-0.864 l 0.28801,0 c 0.76795,0.38401 1.10395,1.15201 1.008,2.304 -5e-5,1.05601 0.048,1.72801 0.144,2.016 0.38395,1.15201 1.05595,2.35201 2.016,3.6 1.05595,1.24801 2.20795,2.448 3.456,3.6 1.34394,1.056 2.68794,1.968 4.03199,2.736 1.43995,0.672 2.68795,1.008 3.744,1.008 l 0.576,0 c 0.28795,0 0.57595,-0.192 0.86401,-0.576 l 11.664,-16.56 0,-2.16 c -0.67207,2e-5 -1.20007,0.14402 -1.58401,0.432 -0.38406,0.19202 -0.76806,0.43202 -1.15199,0.72 -0.28807,0.28802 -0.62407,0.57602 -1.00801,0.864 -0.28806,0.19202 -0.72006,0.28802 -1.296,0.288 -1.44006,2e-5 -2.49606,-0.28798 -3.168,-0.864 -0.57606,-0.57598 -1.10406,-1.53598 -1.584,-2.88 l 0,-14.112 c -6e-5,-3.26396 -0.048,-6.67196 -0.144,-10.224 -0.096,-3.55195 -5e-5,-6.91195 0.288,-10.08 0.38394,-3.16794 1.05594,-5.95194 2.016,-8.352 0.95994,-2.49593 2.49594,-4.31993 4.60801,-5.472 l 0,-0.576 c -7e-5,-0.28793 -0.24007,-0.67193 -0.72001,-1.152 -0.48006,-0.47993 -1.05606,-1.00793 -1.728,-1.584 -0.67206,-0.67193 -1.39206,-1.34393 -2.16,-2.016 -0.76806,-0.67193 -1.48806,-1.34393 -2.16,-2.016 l -0.576,-0.576 c -0.57605,-0.67192 -1.15205,-1.43992 -1.72799,-2.304 -0.57606,-0.86392 -1.15206,-1.67992 -1.72801,-2.448 -0.57605,-0.76792 -1.10405,-1.39192 -1.58399,-1.872 -0.38406,-0.47992 -0.72006,-0.71992 -1.00801,-0.72 l -0.576,0 c -0.28805,8e-5 -0.86405,0.33608 -1.728,1.008 -0.76805,0.67208 -1.68004,1.53608 -2.73599,2.592 -1.05605,0.96008 -2.16005,2.06408 -3.31201,3.312 -1.15204,1.15208 -2.20804,2.30407 -3.168,3.456 -0.96004,1.05607 -1.77604,1.96807 -2.44799,2.736 -0.57604,0.76807 -0.86404,1.24807 -0.86401,1.44 -3e-5,1.05607 0.47997,1.87207 1.44001,2.448 0.95995,0.48007 1.72795,1.10407 2.304,1.872 0.86395,1.15206 1.39195,2.44806 1.58399,3.888 0.19196,1.44006 0.28796,2.88006 0.288,4.32 l 0,3.024 c -4e-5,0.76805 -0.048,2.16005 -0.144,4.176 -4e-5,2.01605 -0.048,4.32004 -0.144,6.912 -4e-5,2.59204 -0.048,5.28004 -0.144,8.064 -0.096,2.68803 -0.24004,5.18403 -0.43199,7.488 -0.096,2.30402 -0.24005,4.22402 -0.432,5.76 -0.19205,1.44002 -0.38405,2.16002 -0.576,2.16 -1.34405,1.05602 -2.64004,1.96802 -3.88801,2.736 -1.24803,0.76802 -2.59203,1.72801 -4.03199,2.88 l -1.87201,0 c -0.76803,-0.95999 -1.53603,-1.67999 -2.304,-2.16 -0.76802,-0.57598 -1.44002,-1.19998 -2.01599,-1.872 -0.57603,-0.76798 -1.05603,-1.77598 -1.44001,-3.024 -0.28802,-1.24798 -0.43202,-3.07198 -0.432,-5.472 -2e-5,-2.30397 -2e-5,-4.41597 0,-6.336 0.096,-1.91997 0.33598,-3.98396 0.72,-6.192 l 0,-32.4 c -2e-5,-0.95993 -0.52802,-2.20793 -1.58399,-3.744 -1.05603,-1.53592 -2.30403,-3.02392 -3.744,-4.464 -1.34403,-1.43992 -2.78402,-2.63992 -4.32001,-3.6 -1.44001,-1.05592 -2.59201,-1.58392 -3.456,-1.584 l -0.288,0 c -0.57601,1.05608 -1.53601,2.49608 -2.88,4.32 -1.344,1.82408 -2.736,3.74408 -4.17599,5.76 -1.34401,1.92007 -2.54401,3.69607 -3.60001,5.328 -1.056,1.53607 -1.584,2.59207 -1.58399,3.168 -1e-5,0.48006 0.048,0.86406 0.14399,1.152 0.192,0.28806 0.576,0.43206 1.152,0.432 0.768,6e-5 1.392,-0.28794 1.872,-0.864 0.576,-0.67193 1.248,-1.00793 2.01601,-1.008 1.24799,7e-5 2.25599,0.67206 3.024,2.016 0.76798,1.34406 1.29598,2.49606 1.58399,3.456 l 0,4.896 c -10e-6,5.85605 -0.14401,11.42404 -0.432,16.704 -0.19201,5.18403 -0.48001,10.99203 -0.86399,17.424 -0.19201,1.05602 -0.43201,1.96802 -0.72001,2.736 -0.288,0.67202 -0.72,1.34402 -1.296,2.016 -0.48,0.57602 -1.056,1.15202 -1.728,1.728 -0.672,0.57601 -1.44,1.29601 -2.30399,2.16 l 0,0.576"
         id="path2866"
         style="font-size:144px;font-family:Proclamate Light;-inkscape-font-specification:Proclamate Light" />
      <path
         d="m 964.35675,382.78338 0,0.288 c 0,0.096 0.048,0.19201 0.144,0.288 0.192,0.096 0.336,0.19201 0.432,0.288 3.64799,1.82401 7.00799,3.74401 10.08,5.76 3.16798,1.92 6.09598,4.464 8.784,7.632 l 0.72,0 1.152,-1.152 c 1.43997,-1.824 2.92797,-3.696 4.464,-5.616 1.53597,-2.01599 2.92797,-3.88799 4.176,-5.616 1.34396,-1.72799 2.44796,-3.31199 3.312,-4.752 0.86396,-1.43998 1.29596,-2.63998 1.296,-3.6 l -1.728,0 -3.6,3.744 -1.872,0 c -3e-5,2e-5 -0.24003,-0.14398 -0.72,-0.432 -0.38403,-0.38398 -0.86403,-0.76798 -1.44,-1.152 -0.48003,-0.47998 -0.96003,-0.91198 -1.44,-1.296 -0.38403,-0.38398 -0.57603,-0.67198 -0.576,-0.864 l 0,-13.392 c -3e-5,-2.87996 -0.048,-6.14396 -0.144,-9.792 -3e-5,-3.74395 0.096,-7.29595 0.288,-10.656 0.28797,-3.35994 0.76797,-6.19194 1.44,-8.496 0.76797,-2.30394 1.96797,-3.45593 3.6,-3.456 l 0.288,0.144 c 0.19197,0.0961 0.43197,0.28807 0.72,0.576 0.28797,0.28806 0.43197,0.48006 0.432,0.576 l 6.19205,10.944 c 0.1919,0.48005 0.5759,0.72005 1.1519,0.72 0,5e-5 0.528,-0.43195 1.5841,-1.296 1.0559,-0.95994 2.2079,-2.11194 3.456,-3.456 1.2479,-1.34394 2.3519,-2.68794 3.312,-4.032 1.0559,-1.43994 1.5839,-2.68794 1.5839,-3.744 0,-0.28793 -0.432,-1.34393 -1.2959,-3.168 -0.7681,-1.82393 -1.6801,-3.79193 -2.7361,-5.904 -1.056,-2.11192 -2.064,-4.03192 -3.024,-5.76 -0.96,-1.72792 -1.584,-2.59192 -1.872,-2.592 l -1.008,0.576 c -1.344,1.63208 -2.78399,3.36008 -4.31995,5.184 -1.53604,1.82408 -3.02403,3.50407 -4.464,5.04 -1.34403,1.44007 -2.44803,2.68807 -3.312,3.744 -0.86403,0.96007 -1.20003,1.44007 -1.008,1.44 l -0.288,-0.144 c -0.38403,7e-5 -0.57603,-0.19193 -0.576,-0.576 -0.76803,-2.11193 -1.34403,-3.74393 -1.728,-4.896 -0.28803,-1.24793 -0.76802,-2.30393 -1.44,-3.168 -0.57602,-0.86392 -1.44002,-1.67992 -2.592,-2.448 -1.15202,-0.86392 -2.88002,-2.01592 -5.184,-3.456 -1.34401,-0.86392 -2.68801,-1.29592 -4.032,-1.296 l -0.576,0 c -0.38401,8e-5 -0.72001,0.19208 -1.008,0.576 l -9.072,15.264 0,2.88 c 0.576,6e-5 1.056,-0.0959 1.44,-0.288 0.384,-0.28794 0.72,-0.57594 1.008,-0.864 0.288,-0.28793 0.576,-0.52793 0.864,-0.72 0.38399,-0.28793 0.86399,-0.43193 1.44,-0.432 1.53599,7e-5 2.63999,0.48007 3.312,1.44 0.76799,0.96006 1.34399,2.11206 1.728,3.456 l 0,20.448 c -10e-6,3.36004 -0.048,6.57603 -0.144,9.648 -0.096,3.07203 -0.28801,6.48002 -0.576,10.224 -0.28801,0.86402 -0.81601,1.68002 -1.584,2.448 -0.67201,0.67202 -1.39201,1.29602 -2.16,1.872 -0.76801,0.57602 -1.44001,1.15202 -2.016,1.728 -0.576,0.48001 -0.864,1.00801 -0.864,1.584"
         id="path2868"
         style="font-size:144px;font-family:Proclamate Light;-inkscape-font-specification:Proclamate Light" />
      <path
         d="m 1017.8212,382.49538 c 0,0.19201 0.336,0.72001 1.008,1.584 0.672,0.76801 1.488,1.72801 2.448,2.88 1.056,1.05601 2.16,2.25601 3.3121,3.6 1.2479,1.248 2.3999,2.4 3.4559,3.456 1.152,1.056 2.064,1.92 2.7361,2.592 0.7679,0.672 1.2479,1.008 1.44,1.008 0.096,0 0.2399,-0.048 0.432,-0.144 0.1919,0 0.3359,0 0.432,0 0.2879,-0.576 1.1519,-1.68 2.592,-3.312 1.5359,-1.632 3.0719,-3.31199 4.608,-5.04 1.6319,-1.82399 3.0719,-3.40799 4.32,-4.752 1.3439,-1.43999 2.0159,-2.15999 2.016,-2.16 -10e-5,-0.28799 -0.2401,-0.67199 -0.7201,-1.152 -0.48,-0.57598 -1.008,-1.10398 -1.5839,-1.584 -0.5761,-0.47998 -1.1521,-0.91198 -1.728,-1.296 -0.4801,-0.47998 -0.7681,-0.76798 -0.864,-0.864 -0.5761,-0.76798 -0.9601,-1.72798 -1.152,-2.88 -0.096,-1.24798 -0.1441,-2.44798 -0.144,-3.6 l 0,-2.88 c -10e-5,-5.85597 0.048,-11.56796 0.144,-17.136 0.096,-5.56795 0.2399,-11.37594 0.432,-17.424 0.5759,-0.57594 1.2479,-1.24794 2.016,-2.016 0.7679,-0.86393 1.5839,-1.63193 2.448,-2.304 0.8639,-0.67193 1.7279,-1.24793 2.592,-1.728 0.9599,-0.47993 1.8719,-0.71993 2.736,-0.72 0.5759,7e-5 1.2479,0.24007 2.016,0.72 0.8639,0.48007 1.6799,1.05607 2.448,1.728 0.7679,0.67207 1.4399,1.39207 2.016,2.16 0.5759,0.76806 0.8639,1.48806 0.864,2.16 l 0,9.792 c -10e-5,4.89605 -0.1441,9.79204 -0.4321,14.688 -0.192,4.80003 -0.288,9.64803 -0.2879,14.544 -10e-5,0.48002 -10e-5,1.24802 0,2.304 -10e-5,0.96002 -10e-5,2.06402 0,3.312 0.096,1.15202 0.1439,2.25602 0.144,3.312 -10e-5,1.05601 -10e-5,1.77601 0,2.16 0.3839,3.55201 1.9199,6.43201 4.608,8.64 2.7839,2.112 5.7119,3.696 8.784,4.752 l 0.288,0 c 0.4799,0 0.8159,-0.24 1.008,-0.72 0.1919,-0.48 0.3839,-0.864 0.576,-1.152 0.8639,-1.44 1.9199,-3.12 3.1679,-5.04 1.248,-1.91999 2.448,-3.79199 3.6001,-5.616 1.1519,-1.82399 2.1119,-3.40798 2.88,-4.752 0.8639,-1.34398 1.2959,-2.11198 1.296,-2.304 -10e-5,-0.86398 -0.4321,-1.29598 -1.296,-1.296 -0.8641,2e-5 -1.5361,0.33602 -2.016,1.008 -0.4801,0.67202 -1.2481,1.00802 -2.304,1.008 -1.0561,2e-5 -2.0161,-0.43198 -2.88,-1.296 -0.8641,-0.95998 -1.2961,-1.96798 -1.296,-3.024 l 0,-11.664 c -10e-5,-1.05596 -10e-5,-2.87996 0,-5.472 0.096,-2.68796 0.1439,-5.51995 0.144,-8.496 0.096,-2.97595 0.1919,-5.75995 0.288,-8.352 0.096,-2.68794 0.1439,-4.55994 0.144,-5.616 0.1919,-1.15194 0.6239,-2.20794 1.296,-3.168 0.6719,-1.05593 1.3439,-1.96793 2.016,-2.736 0.7679,-0.76793 1.4399,-1.39193 2.016,-1.872 0.5759,-0.57593 0.8639,-1.05593 0.864,-1.44 -10e-5,-0.47993 -0.2401,-0.91193 -0.72,-1.296 -0.3841,-0.47993 -0.8641,-0.86393 -1.44,-1.152 -0.5761,-0.28793 -1.1521,-0.52793 -1.728,-0.72 -0.4801,-0.19193 -0.8161,-0.33593 -1.008,-0.432 -0.5761,-0.28792 -1.4881,-0.91192 -2.736,-1.872 -1.1521,-0.95992 -2.3521,-1.91992 -3.6,-2.88 -1.2481,-1.05592 -2.4001,-1.96792 -3.456,-2.736 -1.0561,-0.76792 -1.7761,-1.15192 -2.1601,-1.152 -0.864,8e-5 -2.112,0.52808 -3.7439,1.584 -1.5361,0.96008 -3.2641,2.16008 -5.184,3.6 -1.9201,1.44008 -3.8881,2.97608 -5.904,4.608 -2.0161,1.63207 -3.8881,3.07207 -5.616,4.32 -0.3841,0.28807 -0.6721,0.48007 -0.864,0.576 -0.1921,7e-5 -0.4801,7e-5 -0.864,0 l -0.72,0 c -0.096,-1.72793 -0.6241,-3.35993 -1.584,-4.896 -0.8641,-1.63192 -2.0161,-3.11992 -3.456,-4.464 -1.3441,-1.43992 -2.8321,-2.63992 -4.464,-3.6 -1.5361,-1.05592 -3.0241,-1.82392 -4.464,-2.304 l -0.576,0 c -0.1921,0.0961 -0.7201,0.76808 -1.584,2.016 -0.7681,1.15208 -1.7761,2.54408 -3.0241,4.176 -1.152,1.63208 -2.4,3.40807 -3.744,5.328 -1.344,1.82407 -2.64,3.45607 -3.8879,4.896 l 0,2.88 c 0.5759,6e-5 1.0559,-0.0959 1.4399,-0.288 0.384,-0.28793 0.72,-0.57593 1.0081,-0.864 0.3839,-0.28793 0.7679,-0.52793 1.1519,-0.72 0.384,-0.28793 0.816,-0.43193 1.2961,-0.432 1.7279,7e-5 3.0239,0.76807 3.888,2.304 0.9599,1.53606 1.4879,3.02406 1.584,4.464 l 0,19.584 c -1e-4,0.76804 -0.096,2.11204 -0.288,4.032 -0.096,1.92003 -0.1921,3.93603 -0.288,6.048 -0.096,2.11203 -0.2401,4.12803 -0.4321,6.048 -0.096,1.92002 -0.144,3.26402 -0.144,4.032 -0.48,0.96002 -0.864,1.72802 -1.1519,2.304 -0.2881,0.57602 -0.6241,1.05602 -1.0081,1.44 -0.288,0.38402 -0.72,0.76802 -1.2959,1.152 -0.4801,0.28802 -1.2001,0.67202 -2.1601,1.152 l 0,0.864"
         id="path2870"
         style="font-size:144px;font-family:Proclamate Light;-inkscape-font-specification:Proclamate Light" />
      <path
         d="m 1086.7838,360.89538 c -10e-5,3.45603 0.4319,6.67203 1.296,9.648 0.9599,2.88002 2.1599,5.61602 3.6,8.208 1.4399,2.59201 3.1199,5.13601 5.04,7.632 1.9199,2.49601 3.8879,5.088 5.904,7.776 0.4799,0.672 0.8159,1.344 1.008,2.016 0.1919,0.672 0.7679,1.008 1.728,1.008 l 17.424,-13.392 2.448,-1.296 c 0.6719,1.44001 1.2479,2.68801 1.728,3.744 0.4799,1.05601 1.0079,2.06401 1.584,3.024 0.5759,0.86401 1.2959,1.68001 2.16,2.448 0.8639,0.768 2.0639,1.584 3.6,2.448 0.3839,0.192 0.9119,0.48 1.584,0.864 0.6719,0.288 1.3439,0.624 2.016,1.008 0.6719,0.288 1.2479,0.576 1.728,0.864 0.4799,0.192 0.7679,0.288 0.864,0.288 l 0.576,0 9.072,-15.264 c 0.5759,-0.19199 0.9119,-0.43199 1.008,-0.72 0.1919,-0.28798 0.2879,-0.67198 0.288,-1.152 l 0,-0.864 c -1e-4,-0.38398 -0.048,-0.71998 -0.144,-1.008 -0.096,-0.38398 -0.3841,-0.57598 -0.864,-0.576 -0.7681,2e-5 -1.4881,0.33602 -2.1601,1.008 -0.672,0.67202 -1.488,1.00802 -2.4479,1.008 -1.0561,2e-5 -2.0161,-0.43198 -2.88,-1.296 -0.8641,-0.95998 -1.2961,-1.96798 -1.296,-3.024 l 0,-36.576 c -10e-5,-1.63194 0.5279,-3.11994 1.584,-4.464 1.0559,-1.43994 2.1599,-2.59194 3.312,-3.456 l 0,-0.432 c -10e-5,-0.19193 -0.7201,-0.67193 -2.16,-1.44 -1.3441,-0.86393 -2.9761,-1.82393 -4.896,-2.88 -1.9201,-1.05593 -3.8401,-2.11193 -5.76,-3.168 -1.9201,-1.05593 -3.3601,-1.87192 -4.32,-2.448 -1.7281,-1.24792 -3.3121,-2.63992 -4.7521,-4.176 -1.44,-1.53592 -3.072,-2.83192 -4.8959,-3.888 -0.6721,8e-5 -1.5841,0.76808 -2.736,2.304 -1.1521,1.44008 -2.3041,2.73608 -3.456,3.888 -3.3601,3.55207 -6.6721,6.72007 -9.936,9.504 -3.1681,2.68807 -6.0001,5.52006 -8.496,8.496 -2.4961,2.97606 -4.5121,6.38405 -6.048,10.224 -1.5361,3.74405 -2.3041,8.44804 -2.304,14.112 m 15.84,-9.216 c -10e-5,-4.51195 0.4319,-8.68795 1.296,-12.528 0.9599,-3.93594 2.7839,-7.77594 5.472,-11.52 0.2879,-0.38393 0.6719,-0.57593 1.152,-0.576 l 0.576,0 c 0.3839,0.28807 1.1039,0.91207 2.16,1.872 1.0559,0.96007 1.7759,1.58407 2.16,1.872 0.5759,0.48007 1.3439,1.00806 2.304,1.584 1.0559,0.57606 2.1119,1.20006 3.168,1.872 1.1519,0.67206 2.1599,1.39206 3.024,2.16 0.9599,0.76806 1.5839,1.53606 1.872,2.304 l 0,13.968 c -10e-5,0.86404 -0.048,2.49604 -0.144,4.896 -10e-5,2.30404 -0.048,4.75203 -0.144,7.344 -10e-5,2.59203 -0.048,5.04003 -0.144,7.344 -0.096,2.30402 -0.1441,3.88802 -0.144,4.752 -1.0561,1.34402 -2.1121,2.40002 -3.168,3.168 -1.0561,0.76802 -2.4001,1.15201 -4.032,1.152 -1.9201,10e-6 -3.7441,-0.67198 -5.4721,-2.016 -1.632,-1.43998 -3.072,-3.11998 -4.3199,-5.04 -1.2481,-2.01598 -2.3041,-4.07997 -3.168,-6.192 -0.8641,-2.20797 -1.4881,-4.07997 -1.872,-5.616 -0.2881,-1.34396 -0.4801,-2.59196 -0.576,-3.744 -10e-5,-1.24796 -10e-5,-2.54396 0,-3.888 l 0,-3.168"
         id="path2872"
         style="font-size:144px;font-family:Proclamate Light;-inkscape-font-specification:Proclamate Light" />
      <path
         d="m 1156.7318,384.36738 c 3.6479,1.63201 6.7199,3.55201 9.216,5.76 2.4959,2.112 5.3279,4.656 8.496,7.632 l 0.576,0 c 0.8639,0 1.4879,-0.192 1.872,-0.576 l 14.688,-16.848 0,-0.288 c -0.1921,-0.19198 -0.4801,-0.47998 -0.864,-0.864 -0.3841,-0.38398 -0.6241,-0.52798 -0.72,-0.432 -0.1921,2e-5 -0.2881,0.048 -0.288,0.144 l -3.7441,3.024 -0.7199,0 c -2.3041,1e-5 -3.9841,-0.95998 -5.04,-2.88 -0.9601,-1.91998 -1.5841,-4.27198 -1.872,-7.056 -0.1921,-2.87997 -0.1921,-5.90397 0,-9.072 0.1919,-3.26396 0.2879,-6.19196 0.288,-8.784 -10e-5,-6.23995 -10e-5,-11.61595 0,-16.128 0.096,-4.60794 0.1439,-8.83193 0.144,-12.672 0.096,-3.93593 0.1919,-7.77592 0.288,-11.52 0.096,-3.74391 0.1919,-7.91991 0.288,-12.528 -10e-5,-2.6879 0.3359,-4.8479 1.008,-6.48 0.7679,-1.7279 1.7759,-3.1199 3.024,-4.176 1.2479,-1.15189 2.7359,-2.01589 4.464,-2.592 1.8239,-0.67189 3.8879,-1.34389 6.192,-2.016 0.2879,-0.0959 0.4799,-0.33589 0.576,-0.72 0.096,-0.47989 0.1439,-0.91189 0.144,-1.296 l 0,-0.576 c -3.0721,1.1e-4 -6.2881,0.38411 -9.648,1.152 -3.2641,0.67211 -6.3361,1.72811 -9.216,3.168 -2.7841,1.44011 -5.2801,3.26411 -7.488,5.472 -2.1121,2.1121 -3.5521,4.6081 -4.32,7.488 l -1.296,0 c -0.7681,-1.6319 -1.7281,-3.6479 -2.88,-6.048 -1.1521,-2.4959 -2.4001,-4.55989 -3.7441,-6.192 l -0.7199,0 c -0.7681,1.1e-4 -1.1521,0.52811 -1.152,1.584 -10e-5,0.86411 0.2399,1.8721 0.72,3.024 0.5759,1.0561 1.1999,2.1601 1.872,3.312 0.6719,1.1521 1.3439,2.3521 2.016,3.6 0.6719,1.1521 1.1519,2.20809 1.44,3.168 1.0559,3.26409 1.7279,6.57609 2.016,9.936 0.3839,3.36008 0.5759,6.72008 0.576,10.08 -10e-5,7.48807 -0.1441,14.97606 -0.432,22.464 -0.1921,7.48804 -0.2881,14.97604 -0.288,22.464 l 0,6.48 c -10e-5,0.19202 -10e-5,0.38402 0,0.576 0.096,0.096 0.1439,0.24002 0.144,0.432 -10e-5,1.05602 -0.2881,1.92002 -0.864,2.592 -0.5761,0.67202 -1.2481,1.29602 -2.016,1.872 -0.6721,0.48002 -1.2961,1.00802 -1.872,1.584 -0.5761,0.57601 -0.8641,1.29601 -0.864,2.16 l 0,0.576"
         id="path2874"
         style="font-size:144px;font-family:Proclamate Light;-inkscape-font-specification:Proclamate Light" />
    </g>
  </g>
</svg>
