<?xml version="1.0" encoding="UTF-8" standalone="no"?>
<!-- Created with Inkscape (http://www.inkscape.org/) -->

<svg
   xmlns:dc="http://purl.org/dc/elements/1.1/"
   xmlns:cc="http://creativecommons.org/ns#"
   xmlns:rdf="http://www.w3.org/1999/02/22-rdf-syntax-ns#"
   xmlns:svg="http://www.w3.org/2000/svg"
   xmlns="http://www.w3.org/2000/svg"
   version="1.1"
   width="8"
   height="8"
   viewBox="0 0 8 8"
   id="svg2">
  <metadata
     id="metadata10">
    <rdf:RDF>
      <cc:Work
         rdf:about="">
        <dc:format>image/svg+xml</dc:format>
        <dc:type
           rdf:resource="http://purl.org/dc/dcmitype/StillImage" />
        <dc:title></dc:title>
      </cc:Work>
    </rdf:RDF>
  </metadata>
  <defs
     id="defs8" />
  <path
     d="M 3.34,0 2,2 H 0 V 6 H 2 L 3.34,8 H 4 V 0 H 3.34 z M 5,1 V 2 C 5.17,2 5.34,2.02 5.5,2.06 6.36,2.28 7,3.06 7,4 7,4.94 6.37,5.72 5.5,5.94 5.34,5.98 5.17,6 5,6 V 7 C 5.25,7 5.48,6.96 5.72,6.91 H 5.75 C 7.05,6.58 8,5.4 8,4 8,2.6 7.05,1.42 5.75,1.09 5.52,1.03 5.26,1 5,1 z M 5,3 V 5 C 5.09,5 5.18,4.99 5.25,4.97 5.68,4.86 6,4.46 6,4 6,3.54 5.69,3.14 5.25,3.03 5.17,3.01 5.08,3 5,3 z"
     id="path4"
     style="fill:#999999" />
</svg>
